G04 #@! TF.GenerationSoftware,KiCad,Pcbnew,5.1.10-88a1d61d58~90~ubuntu20.04.1*
G04 #@! TF.CreationDate,2021-10-02T19:54:06-04:00*
G04 #@! TF.ProjectId,joystick_panel,6a6f7973-7469-4636-9b5f-70616e656c2e,rev?*
G04 #@! TF.SameCoordinates,Original*
G04 #@! TF.FileFunction,Copper,L1,Top*
G04 #@! TF.FilePolarity,Positive*
%FSLAX46Y46*%
G04 Gerber Fmt 4.6, Leading zero omitted, Abs format (unit mm)*
G04 Created by KiCad (PCBNEW 5.1.10-88a1d61d58~90~ubuntu20.04.1) date 2021-10-02 19:54:06*
%MOMM*%
%LPD*%
G01*
G04 APERTURE LIST*
G04 #@! TA.AperFunction,ComponentPad*
%ADD10C,3.500000*%
G04 #@! TD*
G04 #@! TA.AperFunction,ComponentPad*
%ADD11C,9.000000*%
G04 #@! TD*
G04 #@! TA.AperFunction,ComponentPad*
%ADD12C,14.000000*%
G04 #@! TD*
G04 #@! TA.AperFunction,ComponentPad*
%ADD13O,6.800000X4.000000*%
G04 #@! TD*
G04 #@! TA.AperFunction,Conductor*
%ADD14C,0.254000*%
G04 #@! TD*
G04 #@! TA.AperFunction,Conductor*
%ADD15C,0.100000*%
G04 #@! TD*
G04 APERTURE END LIST*
D10*
X82350000Y-73850000D03*
X49850000Y-73850000D03*
X82350000Y-41350000D03*
X49850000Y-41350000D03*
D11*
X91100000Y-147600000D03*
X41100000Y-147600000D03*
X91100000Y-102600000D03*
X41100000Y-102600000D03*
D12*
X53600000Y-182600000D03*
X103600000Y-182600000D03*
X28600000Y-182600000D03*
D13*
X111700000Y-204600000D03*
X111700000Y-10600000D03*
X20500000Y-10600000D03*
X20500000Y-204600000D03*
D12*
X78600000Y-182600000D03*
D14*
X108730475Y-8479635D02*
X108346970Y-8826576D01*
X108038519Y-9241669D01*
X107816975Y-9708962D01*
X107720333Y-10062838D01*
X107827009Y-10473000D01*
X111573000Y-10473000D01*
X111573000Y-10453000D01*
X111827000Y-10453000D01*
X111827000Y-10473000D01*
X111847000Y-10473000D01*
X111847000Y-10727000D01*
X111827000Y-10727000D01*
X111827000Y-13235000D01*
X113227000Y-13235000D01*
X113738623Y-13159593D01*
X114225704Y-12985822D01*
X114669525Y-12720365D01*
X115053030Y-12373424D01*
X115361481Y-11958331D01*
X115415001Y-11845444D01*
X115415000Y-203354554D01*
X115361481Y-203241669D01*
X115053030Y-202826576D01*
X114669525Y-202479635D01*
X114225704Y-202214178D01*
X113738623Y-202040407D01*
X113227000Y-201965000D01*
X111827000Y-201965000D01*
X111827000Y-204473000D01*
X111847000Y-204473000D01*
X111847000Y-204727000D01*
X111827000Y-204727000D01*
X111827000Y-204747000D01*
X111573000Y-204747000D01*
X111573000Y-204727000D01*
X107827009Y-204727000D01*
X107720333Y-205137162D01*
X107816975Y-205491038D01*
X108038519Y-205958331D01*
X108346970Y-206373424D01*
X108730475Y-206720365D01*
X109055888Y-206915000D01*
X23144112Y-206915000D01*
X23469525Y-206720365D01*
X23853030Y-206373424D01*
X24161481Y-205958331D01*
X24383025Y-205491038D01*
X24479667Y-205137162D01*
X24372991Y-204727000D01*
X20627000Y-204727000D01*
X20627000Y-204747000D01*
X20373000Y-204747000D01*
X20373000Y-204727000D01*
X20353000Y-204727000D01*
X20353000Y-204473000D01*
X20373000Y-204473000D01*
X20373000Y-201965000D01*
X20627000Y-201965000D01*
X20627000Y-204473000D01*
X24372991Y-204473000D01*
X24479667Y-204062838D01*
X107720333Y-204062838D01*
X107827009Y-204473000D01*
X111573000Y-204473000D01*
X111573000Y-201965000D01*
X110173000Y-201965000D01*
X109661377Y-202040407D01*
X109174296Y-202214178D01*
X108730475Y-202479635D01*
X108346970Y-202826576D01*
X108038519Y-203241669D01*
X107816975Y-203708962D01*
X107720333Y-204062838D01*
X24479667Y-204062838D01*
X24383025Y-203708962D01*
X24161481Y-203241669D01*
X23853030Y-202826576D01*
X23469525Y-202479635D01*
X23025704Y-202214178D01*
X22538623Y-202040407D01*
X22027000Y-201965000D01*
X20627000Y-201965000D01*
X20373000Y-201965000D01*
X18973000Y-201965000D01*
X18461377Y-202040407D01*
X17974296Y-202214178D01*
X17530475Y-202479635D01*
X17146970Y-202826576D01*
X16838519Y-203241669D01*
X16785000Y-203354554D01*
X16785000Y-188001674D01*
X23377932Y-188001674D01*
X24193908Y-188880530D01*
X25503840Y-189619437D01*
X26932756Y-190088591D01*
X28425743Y-190269963D01*
X29925428Y-190156583D01*
X31374176Y-189752807D01*
X32716314Y-189074153D01*
X33006092Y-188880530D01*
X33822068Y-188001674D01*
X48377932Y-188001674D01*
X49193908Y-188880530D01*
X50503840Y-189619437D01*
X51932756Y-190088591D01*
X53425743Y-190269963D01*
X54925428Y-190156583D01*
X56374176Y-189752807D01*
X57716314Y-189074153D01*
X58006092Y-188880530D01*
X58822068Y-188001674D01*
X73377932Y-188001674D01*
X74193908Y-188880530D01*
X75503840Y-189619437D01*
X76932756Y-190088591D01*
X78425743Y-190269963D01*
X79925428Y-190156583D01*
X81374176Y-189752807D01*
X82716314Y-189074153D01*
X83006092Y-188880530D01*
X83822068Y-188001674D01*
X98377932Y-188001674D01*
X99193908Y-188880530D01*
X100503840Y-189619437D01*
X101932756Y-190088591D01*
X103425743Y-190269963D01*
X104925428Y-190156583D01*
X106374176Y-189752807D01*
X107716314Y-189074153D01*
X108006092Y-188880530D01*
X108822068Y-188001674D01*
X103600000Y-182779605D01*
X98377932Y-188001674D01*
X83822068Y-188001674D01*
X78600000Y-182779605D01*
X73377932Y-188001674D01*
X58822068Y-188001674D01*
X53600000Y-182779605D01*
X48377932Y-188001674D01*
X33822068Y-188001674D01*
X28600000Y-182779605D01*
X23377932Y-188001674D01*
X16785000Y-188001674D01*
X16785000Y-182425743D01*
X20930037Y-182425743D01*
X21043417Y-183925428D01*
X21447193Y-185374176D01*
X22125847Y-186716314D01*
X22319470Y-187006092D01*
X23198326Y-187822068D01*
X28420395Y-182600000D01*
X28779605Y-182600000D01*
X34001674Y-187822068D01*
X34880530Y-187006092D01*
X35619437Y-185696160D01*
X36088591Y-184267244D01*
X36269963Y-182774257D01*
X36243615Y-182425743D01*
X45930037Y-182425743D01*
X46043417Y-183925428D01*
X46447193Y-185374176D01*
X47125847Y-186716314D01*
X47319470Y-187006092D01*
X48198326Y-187822068D01*
X53420395Y-182600000D01*
X53779605Y-182600000D01*
X59001674Y-187822068D01*
X59880530Y-187006092D01*
X60619437Y-185696160D01*
X61088591Y-184267244D01*
X61269963Y-182774257D01*
X61243615Y-182425743D01*
X70930037Y-182425743D01*
X71043417Y-183925428D01*
X71447193Y-185374176D01*
X72125847Y-186716314D01*
X72319470Y-187006092D01*
X73198326Y-187822068D01*
X78420395Y-182600000D01*
X78779605Y-182600000D01*
X84001674Y-187822068D01*
X84880530Y-187006092D01*
X85619437Y-185696160D01*
X86088591Y-184267244D01*
X86269963Y-182774257D01*
X86243615Y-182425743D01*
X95930037Y-182425743D01*
X96043417Y-183925428D01*
X96447193Y-185374176D01*
X97125847Y-186716314D01*
X97319470Y-187006092D01*
X98198326Y-187822068D01*
X103420395Y-182600000D01*
X103779605Y-182600000D01*
X109001674Y-187822068D01*
X109880530Y-187006092D01*
X110619437Y-185696160D01*
X111088591Y-184267244D01*
X111269963Y-182774257D01*
X111156583Y-181274572D01*
X110752807Y-179825824D01*
X110074153Y-178483686D01*
X109880530Y-178193908D01*
X109001674Y-177377932D01*
X103779605Y-182600000D01*
X103420395Y-182600000D01*
X98198326Y-177377932D01*
X97319470Y-178193908D01*
X96580563Y-179503840D01*
X96111409Y-180932756D01*
X95930037Y-182425743D01*
X86243615Y-182425743D01*
X86156583Y-181274572D01*
X85752807Y-179825824D01*
X85074153Y-178483686D01*
X84880530Y-178193908D01*
X84001674Y-177377932D01*
X78779605Y-182600000D01*
X78420395Y-182600000D01*
X73198326Y-177377932D01*
X72319470Y-178193908D01*
X71580563Y-179503840D01*
X71111409Y-180932756D01*
X70930037Y-182425743D01*
X61243615Y-182425743D01*
X61156583Y-181274572D01*
X60752807Y-179825824D01*
X60074153Y-178483686D01*
X59880530Y-178193908D01*
X59001674Y-177377932D01*
X53779605Y-182600000D01*
X53420395Y-182600000D01*
X48198326Y-177377932D01*
X47319470Y-178193908D01*
X46580563Y-179503840D01*
X46111409Y-180932756D01*
X45930037Y-182425743D01*
X36243615Y-182425743D01*
X36156583Y-181274572D01*
X35752807Y-179825824D01*
X35074153Y-178483686D01*
X34880530Y-178193908D01*
X34001674Y-177377932D01*
X28779605Y-182600000D01*
X28420395Y-182600000D01*
X23198326Y-177377932D01*
X22319470Y-178193908D01*
X21580563Y-179503840D01*
X21111409Y-180932756D01*
X20930037Y-182425743D01*
X16785000Y-182425743D01*
X16785000Y-177198326D01*
X23377932Y-177198326D01*
X28600000Y-182420395D01*
X33822068Y-177198326D01*
X48377932Y-177198326D01*
X53600000Y-182420395D01*
X58822068Y-177198326D01*
X73377932Y-177198326D01*
X78600000Y-182420395D01*
X83822068Y-177198326D01*
X98377932Y-177198326D01*
X103600000Y-182420395D01*
X108822068Y-177198326D01*
X108006092Y-176319470D01*
X106696160Y-175580563D01*
X105267244Y-175111409D01*
X103774257Y-174930037D01*
X102274572Y-175043417D01*
X100825824Y-175447193D01*
X99483686Y-176125847D01*
X99193908Y-176319470D01*
X98377932Y-177198326D01*
X83822068Y-177198326D01*
X83006092Y-176319470D01*
X81696160Y-175580563D01*
X80267244Y-175111409D01*
X78774257Y-174930037D01*
X77274572Y-175043417D01*
X75825824Y-175447193D01*
X74483686Y-176125847D01*
X74193908Y-176319470D01*
X73377932Y-177198326D01*
X58822068Y-177198326D01*
X58006092Y-176319470D01*
X56696160Y-175580563D01*
X55267244Y-175111409D01*
X53774257Y-174930037D01*
X52274572Y-175043417D01*
X50825824Y-175447193D01*
X49483686Y-176125847D01*
X49193908Y-176319470D01*
X48377932Y-177198326D01*
X33822068Y-177198326D01*
X33006092Y-176319470D01*
X31696160Y-175580563D01*
X30267244Y-175111409D01*
X28774257Y-174930037D01*
X27274572Y-175043417D01*
X25825824Y-175447193D01*
X24483686Y-176125847D01*
X24193908Y-176319470D01*
X23377932Y-177198326D01*
X16785000Y-177198326D01*
X16785000Y-151224971D01*
X37654634Y-151224971D01*
X38170783Y-151847788D01*
X39055768Y-152337630D01*
X40019314Y-152645407D01*
X41024389Y-152759293D01*
X42032370Y-152674910D01*
X43004520Y-152395501D01*
X43903481Y-151931803D01*
X44029217Y-151847788D01*
X44545366Y-151224971D01*
X87654634Y-151224971D01*
X88170783Y-151847788D01*
X89055768Y-152337630D01*
X90019314Y-152645407D01*
X91024389Y-152759293D01*
X92032370Y-152674910D01*
X93004520Y-152395501D01*
X93903481Y-151931803D01*
X94029217Y-151847788D01*
X94545366Y-151224971D01*
X91100000Y-147779605D01*
X87654634Y-151224971D01*
X44545366Y-151224971D01*
X41100000Y-147779605D01*
X37654634Y-151224971D01*
X16785000Y-151224971D01*
X16785000Y-147524389D01*
X35940707Y-147524389D01*
X36025090Y-148532370D01*
X36304499Y-149504520D01*
X36768197Y-150403481D01*
X36852212Y-150529217D01*
X37475029Y-151045366D01*
X40920395Y-147600000D01*
X41279605Y-147600000D01*
X44724971Y-151045366D01*
X45347788Y-150529217D01*
X45837630Y-149644232D01*
X46145407Y-148680686D01*
X46259293Y-147675611D01*
X46246634Y-147524389D01*
X85940707Y-147524389D01*
X86025090Y-148532370D01*
X86304499Y-149504520D01*
X86768197Y-150403481D01*
X86852212Y-150529217D01*
X87475029Y-151045366D01*
X90920395Y-147600000D01*
X91279605Y-147600000D01*
X94724971Y-151045366D01*
X95347788Y-150529217D01*
X95837630Y-149644232D01*
X96145407Y-148680686D01*
X96259293Y-147675611D01*
X96174910Y-146667630D01*
X95895501Y-145695480D01*
X95431803Y-144796519D01*
X95347788Y-144670783D01*
X94724971Y-144154634D01*
X91279605Y-147600000D01*
X90920395Y-147600000D01*
X87475029Y-144154634D01*
X86852212Y-144670783D01*
X86362370Y-145555768D01*
X86054593Y-146519314D01*
X85940707Y-147524389D01*
X46246634Y-147524389D01*
X46174910Y-146667630D01*
X45895501Y-145695480D01*
X45431803Y-144796519D01*
X45347788Y-144670783D01*
X44724971Y-144154634D01*
X41279605Y-147600000D01*
X40920395Y-147600000D01*
X37475029Y-144154634D01*
X36852212Y-144670783D01*
X36362370Y-145555768D01*
X36054593Y-146519314D01*
X35940707Y-147524389D01*
X16785000Y-147524389D01*
X16785000Y-143975029D01*
X37654634Y-143975029D01*
X41100000Y-147420395D01*
X44545366Y-143975029D01*
X87654634Y-143975029D01*
X91100000Y-147420395D01*
X94545366Y-143975029D01*
X94029217Y-143352212D01*
X93144232Y-142862370D01*
X92180686Y-142554593D01*
X91175611Y-142440707D01*
X90167630Y-142525090D01*
X89195480Y-142804499D01*
X88296519Y-143268197D01*
X88170783Y-143352212D01*
X87654634Y-143975029D01*
X44545366Y-143975029D01*
X44029217Y-143352212D01*
X43144232Y-142862370D01*
X42180686Y-142554593D01*
X41175611Y-142440707D01*
X40167630Y-142525090D01*
X39195480Y-142804499D01*
X38296519Y-143268197D01*
X38170783Y-143352212D01*
X37654634Y-143975029D01*
X16785000Y-143975029D01*
X16785000Y-106224971D01*
X37654634Y-106224971D01*
X38170783Y-106847788D01*
X39055768Y-107337630D01*
X40019314Y-107645407D01*
X41024389Y-107759293D01*
X42032370Y-107674910D01*
X43004520Y-107395501D01*
X43903481Y-106931803D01*
X44029217Y-106847788D01*
X44545366Y-106224971D01*
X87654634Y-106224971D01*
X88170783Y-106847788D01*
X89055768Y-107337630D01*
X90019314Y-107645407D01*
X91024389Y-107759293D01*
X92032370Y-107674910D01*
X93004520Y-107395501D01*
X93903481Y-106931803D01*
X94029217Y-106847788D01*
X94545366Y-106224971D01*
X91100000Y-102779605D01*
X87654634Y-106224971D01*
X44545366Y-106224971D01*
X41100000Y-102779605D01*
X37654634Y-106224971D01*
X16785000Y-106224971D01*
X16785000Y-102524389D01*
X35940707Y-102524389D01*
X36025090Y-103532370D01*
X36304499Y-104504520D01*
X36768197Y-105403481D01*
X36852212Y-105529217D01*
X37475029Y-106045366D01*
X40920395Y-102600000D01*
X41279605Y-102600000D01*
X44724971Y-106045366D01*
X45347788Y-105529217D01*
X45837630Y-104644232D01*
X46145407Y-103680686D01*
X46259293Y-102675611D01*
X46246634Y-102524389D01*
X85940707Y-102524389D01*
X86025090Y-103532370D01*
X86304499Y-104504520D01*
X86768197Y-105403481D01*
X86852212Y-105529217D01*
X87475029Y-106045366D01*
X90920395Y-102600000D01*
X91279605Y-102600000D01*
X94724971Y-106045366D01*
X95347788Y-105529217D01*
X95837630Y-104644232D01*
X96145407Y-103680686D01*
X96259293Y-102675611D01*
X96174910Y-101667630D01*
X95895501Y-100695480D01*
X95431803Y-99796519D01*
X95347788Y-99670783D01*
X94724971Y-99154634D01*
X91279605Y-102600000D01*
X90920395Y-102600000D01*
X87475029Y-99154634D01*
X86852212Y-99670783D01*
X86362370Y-100555768D01*
X86054593Y-101519314D01*
X85940707Y-102524389D01*
X46246634Y-102524389D01*
X46174910Y-101667630D01*
X45895501Y-100695480D01*
X45431803Y-99796519D01*
X45347788Y-99670783D01*
X44724971Y-99154634D01*
X41279605Y-102600000D01*
X40920395Y-102600000D01*
X37475029Y-99154634D01*
X36852212Y-99670783D01*
X36362370Y-100555768D01*
X36054593Y-101519314D01*
X35940707Y-102524389D01*
X16785000Y-102524389D01*
X16785000Y-98975029D01*
X37654634Y-98975029D01*
X41100000Y-102420395D01*
X44545366Y-98975029D01*
X87654634Y-98975029D01*
X91100000Y-102420395D01*
X94545366Y-98975029D01*
X94029217Y-98352212D01*
X93144232Y-97862370D01*
X92180686Y-97554593D01*
X91175611Y-97440707D01*
X90167630Y-97525090D01*
X89195480Y-97804499D01*
X88296519Y-98268197D01*
X88170783Y-98352212D01*
X87654634Y-98975029D01*
X44545366Y-98975029D01*
X44029217Y-98352212D01*
X43144232Y-97862370D01*
X42180686Y-97554593D01*
X41175611Y-97440707D01*
X40167630Y-97525090D01*
X39195480Y-97804499D01*
X38296519Y-98268197D01*
X38170783Y-98352212D01*
X37654634Y-98975029D01*
X16785000Y-98975029D01*
X16785000Y-75519609D01*
X48359997Y-75519609D01*
X48546073Y-75860766D01*
X48963409Y-76076513D01*
X49414815Y-76206696D01*
X49882946Y-76246313D01*
X50349811Y-76193842D01*
X50797468Y-76051297D01*
X51153927Y-75860766D01*
X51340003Y-75519609D01*
X49850000Y-74029605D01*
X48359997Y-75519609D01*
X16785000Y-75519609D01*
X16785000Y-73882946D01*
X47453687Y-73882946D01*
X47506158Y-74349811D01*
X47648703Y-74797468D01*
X47839234Y-75153927D01*
X48180391Y-75340003D01*
X49670395Y-73850000D01*
X48180391Y-72359997D01*
X47839234Y-72546073D01*
X47623487Y-72963409D01*
X47493304Y-73414815D01*
X47453687Y-73882946D01*
X16785000Y-73882946D01*
X16785000Y-57600000D01*
X44895000Y-57600000D01*
X44977979Y-59474100D01*
X45226266Y-61333533D01*
X45637919Y-63163746D01*
X46209715Y-64950415D01*
X46937180Y-66679557D01*
X47814619Y-68337639D01*
X48835167Y-69911684D01*
X49990835Y-71389374D01*
X50071136Y-71475189D01*
X49817054Y-71453687D01*
X49350189Y-71506158D01*
X48902532Y-71648703D01*
X48546073Y-71839234D01*
X48359997Y-72180391D01*
X49850000Y-73670395D01*
X49864143Y-73656253D01*
X50043748Y-73835858D01*
X50029605Y-73850000D01*
X51519609Y-75340003D01*
X51860766Y-75153927D01*
X52076513Y-74736591D01*
X52206696Y-74285185D01*
X52246313Y-73817054D01*
X52223027Y-73609867D01*
X52670369Y-74010272D01*
X54173263Y-75132968D01*
X55769500Y-76118445D01*
X57446587Y-76958989D01*
X59191399Y-77648024D01*
X60990280Y-78180155D01*
X62829151Y-78551219D01*
X64693622Y-78758311D01*
X66569099Y-78799811D01*
X68440905Y-78675393D01*
X70294390Y-78386032D01*
X72115048Y-77933992D01*
X73888630Y-77322811D01*
X75601256Y-76557272D01*
X77239522Y-75643367D01*
X77421453Y-75519609D01*
X80859997Y-75519609D01*
X81046073Y-75860766D01*
X81463409Y-76076513D01*
X81914815Y-76206696D01*
X82382946Y-76246313D01*
X82849811Y-76193842D01*
X83297468Y-76051297D01*
X83653927Y-75860766D01*
X83840003Y-75519609D01*
X82350000Y-74029605D01*
X80859997Y-75519609D01*
X77421453Y-75519609D01*
X78790605Y-74588248D01*
X79976102Y-73618076D01*
X79953687Y-73882946D01*
X80006158Y-74349811D01*
X80148703Y-74797468D01*
X80339234Y-75153927D01*
X80680391Y-75340003D01*
X82170395Y-73850000D01*
X82529605Y-73850000D01*
X84019609Y-75340003D01*
X84360766Y-75153927D01*
X84576513Y-74736591D01*
X84706696Y-74285185D01*
X84746313Y-73817054D01*
X84693842Y-73350189D01*
X84551297Y-72902532D01*
X84360766Y-72546073D01*
X84019609Y-72359997D01*
X82529605Y-73850000D01*
X82170395Y-73850000D01*
X82156253Y-73835858D01*
X82335858Y-73656253D01*
X82350000Y-73670395D01*
X83840003Y-72180391D01*
X83653927Y-71839234D01*
X83236591Y-71623487D01*
X82785185Y-71493304D01*
X82317054Y-71453687D01*
X82106540Y-71477347D01*
X82803348Y-70663315D01*
X83892522Y-69135953D01*
X84842445Y-67518305D01*
X85645683Y-65823034D01*
X86295950Y-64063406D01*
X86788156Y-62253194D01*
X87118450Y-60406563D01*
X87284245Y-58537968D01*
X87284245Y-56662032D01*
X87118450Y-54793437D01*
X86788156Y-52946806D01*
X86295950Y-51136594D01*
X85645683Y-49376966D01*
X84842445Y-47681695D01*
X83892522Y-46064047D01*
X82803348Y-44536685D01*
X82106788Y-43722942D01*
X82382946Y-43746313D01*
X82849811Y-43693842D01*
X83297468Y-43551297D01*
X83653927Y-43360766D01*
X83840003Y-43019609D01*
X82350000Y-41529605D01*
X82335858Y-41543748D01*
X82156253Y-41364143D01*
X82170395Y-41350000D01*
X82529605Y-41350000D01*
X84019609Y-42840003D01*
X84360766Y-42653927D01*
X84576513Y-42236591D01*
X84706696Y-41785185D01*
X84746313Y-41317054D01*
X84693842Y-40850189D01*
X84551297Y-40402532D01*
X84360766Y-40046073D01*
X84019609Y-39859997D01*
X82529605Y-41350000D01*
X82170395Y-41350000D01*
X80680391Y-39859997D01*
X80339234Y-40046073D01*
X80123487Y-40463409D01*
X79993304Y-40914815D01*
X79953687Y-41382946D01*
X79976045Y-41581877D01*
X78790605Y-40611752D01*
X77421454Y-39680391D01*
X80859997Y-39680391D01*
X82350000Y-41170395D01*
X83840003Y-39680391D01*
X83653927Y-39339234D01*
X83236591Y-39123487D01*
X82785185Y-38993304D01*
X82317054Y-38953687D01*
X81850189Y-39006158D01*
X81402532Y-39148703D01*
X81046073Y-39339234D01*
X80859997Y-39680391D01*
X77421454Y-39680391D01*
X77239522Y-39556633D01*
X75601256Y-38642728D01*
X73888630Y-37877189D01*
X72115048Y-37266008D01*
X70294390Y-36813968D01*
X68440905Y-36524607D01*
X66569099Y-36400189D01*
X64693622Y-36441689D01*
X62829151Y-36648781D01*
X60990280Y-37019845D01*
X59191399Y-37551976D01*
X57446587Y-38241011D01*
X55769500Y-39081555D01*
X54173263Y-40067032D01*
X52670369Y-41189728D01*
X52223217Y-41589963D01*
X52246313Y-41317054D01*
X52193842Y-40850189D01*
X52051297Y-40402532D01*
X51860766Y-40046073D01*
X51519609Y-39859997D01*
X50029605Y-41350000D01*
X50043748Y-41364142D01*
X49864143Y-41543748D01*
X49850000Y-41529605D01*
X48359997Y-43019609D01*
X48546073Y-43360766D01*
X48963409Y-43576513D01*
X49414815Y-43706696D01*
X49882946Y-43746313D01*
X50070768Y-43725204D01*
X49990835Y-43810626D01*
X48835167Y-45288316D01*
X47814619Y-46862361D01*
X46937180Y-48520443D01*
X46209715Y-50249585D01*
X45637919Y-52036254D01*
X45226266Y-53866467D01*
X44977979Y-55725900D01*
X44895000Y-57600000D01*
X16785000Y-57600000D01*
X16785000Y-41382946D01*
X47453687Y-41382946D01*
X47506158Y-41849811D01*
X47648703Y-42297468D01*
X47839234Y-42653927D01*
X48180391Y-42840003D01*
X49670395Y-41350000D01*
X48180391Y-39859997D01*
X47839234Y-40046073D01*
X47623487Y-40463409D01*
X47493304Y-40914815D01*
X47453687Y-41382946D01*
X16785000Y-41382946D01*
X16785000Y-39680391D01*
X48359997Y-39680391D01*
X49850000Y-41170395D01*
X51340003Y-39680391D01*
X51153927Y-39339234D01*
X50736591Y-39123487D01*
X50285185Y-38993304D01*
X49817054Y-38953687D01*
X49350189Y-39006158D01*
X48902532Y-39148703D01*
X48546073Y-39339234D01*
X48359997Y-39680391D01*
X16785000Y-39680391D01*
X16785000Y-11845446D01*
X16838519Y-11958331D01*
X17146970Y-12373424D01*
X17530475Y-12720365D01*
X17974296Y-12985822D01*
X18461377Y-13159593D01*
X18973000Y-13235000D01*
X20373000Y-13235000D01*
X20373000Y-10727000D01*
X20627000Y-10727000D01*
X20627000Y-13235000D01*
X22027000Y-13235000D01*
X22538623Y-13159593D01*
X23025704Y-12985822D01*
X23469525Y-12720365D01*
X23853030Y-12373424D01*
X24161481Y-11958331D01*
X24383025Y-11491038D01*
X24479667Y-11137162D01*
X107720333Y-11137162D01*
X107816975Y-11491038D01*
X108038519Y-11958331D01*
X108346970Y-12373424D01*
X108730475Y-12720365D01*
X109174296Y-12985822D01*
X109661377Y-13159593D01*
X110173000Y-13235000D01*
X111573000Y-13235000D01*
X111573000Y-10727000D01*
X107827009Y-10727000D01*
X107720333Y-11137162D01*
X24479667Y-11137162D01*
X24372991Y-10727000D01*
X20627000Y-10727000D01*
X20373000Y-10727000D01*
X20353000Y-10727000D01*
X20353000Y-10473000D01*
X20373000Y-10473000D01*
X20373000Y-10453000D01*
X20627000Y-10453000D01*
X20627000Y-10473000D01*
X24372991Y-10473000D01*
X24479667Y-10062838D01*
X24383025Y-9708962D01*
X24161481Y-9241669D01*
X23853030Y-8826576D01*
X23469525Y-8479635D01*
X23144112Y-8285000D01*
X109055888Y-8285000D01*
X108730475Y-8479635D01*
G04 #@! TA.AperFunction,Conductor*
D15*
G36*
X108730475Y-8479635D02*
G01*
X108346970Y-8826576D01*
X108038519Y-9241669D01*
X107816975Y-9708962D01*
X107720333Y-10062838D01*
X107827009Y-10473000D01*
X111573000Y-10473000D01*
X111573000Y-10453000D01*
X111827000Y-10453000D01*
X111827000Y-10473000D01*
X111847000Y-10473000D01*
X111847000Y-10727000D01*
X111827000Y-10727000D01*
X111827000Y-13235000D01*
X113227000Y-13235000D01*
X113738623Y-13159593D01*
X114225704Y-12985822D01*
X114669525Y-12720365D01*
X115053030Y-12373424D01*
X115361481Y-11958331D01*
X115415001Y-11845444D01*
X115415000Y-203354554D01*
X115361481Y-203241669D01*
X115053030Y-202826576D01*
X114669525Y-202479635D01*
X114225704Y-202214178D01*
X113738623Y-202040407D01*
X113227000Y-201965000D01*
X111827000Y-201965000D01*
X111827000Y-204473000D01*
X111847000Y-204473000D01*
X111847000Y-204727000D01*
X111827000Y-204727000D01*
X111827000Y-204747000D01*
X111573000Y-204747000D01*
X111573000Y-204727000D01*
X107827009Y-204727000D01*
X107720333Y-205137162D01*
X107816975Y-205491038D01*
X108038519Y-205958331D01*
X108346970Y-206373424D01*
X108730475Y-206720365D01*
X109055888Y-206915000D01*
X23144112Y-206915000D01*
X23469525Y-206720365D01*
X23853030Y-206373424D01*
X24161481Y-205958331D01*
X24383025Y-205491038D01*
X24479667Y-205137162D01*
X24372991Y-204727000D01*
X20627000Y-204727000D01*
X20627000Y-204747000D01*
X20373000Y-204747000D01*
X20373000Y-204727000D01*
X20353000Y-204727000D01*
X20353000Y-204473000D01*
X20373000Y-204473000D01*
X20373000Y-201965000D01*
X20627000Y-201965000D01*
X20627000Y-204473000D01*
X24372991Y-204473000D01*
X24479667Y-204062838D01*
X107720333Y-204062838D01*
X107827009Y-204473000D01*
X111573000Y-204473000D01*
X111573000Y-201965000D01*
X110173000Y-201965000D01*
X109661377Y-202040407D01*
X109174296Y-202214178D01*
X108730475Y-202479635D01*
X108346970Y-202826576D01*
X108038519Y-203241669D01*
X107816975Y-203708962D01*
X107720333Y-204062838D01*
X24479667Y-204062838D01*
X24383025Y-203708962D01*
X24161481Y-203241669D01*
X23853030Y-202826576D01*
X23469525Y-202479635D01*
X23025704Y-202214178D01*
X22538623Y-202040407D01*
X22027000Y-201965000D01*
X20627000Y-201965000D01*
X20373000Y-201965000D01*
X18973000Y-201965000D01*
X18461377Y-202040407D01*
X17974296Y-202214178D01*
X17530475Y-202479635D01*
X17146970Y-202826576D01*
X16838519Y-203241669D01*
X16785000Y-203354554D01*
X16785000Y-188001674D01*
X23377932Y-188001674D01*
X24193908Y-188880530D01*
X25503840Y-189619437D01*
X26932756Y-190088591D01*
X28425743Y-190269963D01*
X29925428Y-190156583D01*
X31374176Y-189752807D01*
X32716314Y-189074153D01*
X33006092Y-188880530D01*
X33822068Y-188001674D01*
X48377932Y-188001674D01*
X49193908Y-188880530D01*
X50503840Y-189619437D01*
X51932756Y-190088591D01*
X53425743Y-190269963D01*
X54925428Y-190156583D01*
X56374176Y-189752807D01*
X57716314Y-189074153D01*
X58006092Y-188880530D01*
X58822068Y-188001674D01*
X73377932Y-188001674D01*
X74193908Y-188880530D01*
X75503840Y-189619437D01*
X76932756Y-190088591D01*
X78425743Y-190269963D01*
X79925428Y-190156583D01*
X81374176Y-189752807D01*
X82716314Y-189074153D01*
X83006092Y-188880530D01*
X83822068Y-188001674D01*
X98377932Y-188001674D01*
X99193908Y-188880530D01*
X100503840Y-189619437D01*
X101932756Y-190088591D01*
X103425743Y-190269963D01*
X104925428Y-190156583D01*
X106374176Y-189752807D01*
X107716314Y-189074153D01*
X108006092Y-188880530D01*
X108822068Y-188001674D01*
X103600000Y-182779605D01*
X98377932Y-188001674D01*
X83822068Y-188001674D01*
X78600000Y-182779605D01*
X73377932Y-188001674D01*
X58822068Y-188001674D01*
X53600000Y-182779605D01*
X48377932Y-188001674D01*
X33822068Y-188001674D01*
X28600000Y-182779605D01*
X23377932Y-188001674D01*
X16785000Y-188001674D01*
X16785000Y-182425743D01*
X20930037Y-182425743D01*
X21043417Y-183925428D01*
X21447193Y-185374176D01*
X22125847Y-186716314D01*
X22319470Y-187006092D01*
X23198326Y-187822068D01*
X28420395Y-182600000D01*
X28779605Y-182600000D01*
X34001674Y-187822068D01*
X34880530Y-187006092D01*
X35619437Y-185696160D01*
X36088591Y-184267244D01*
X36269963Y-182774257D01*
X36243615Y-182425743D01*
X45930037Y-182425743D01*
X46043417Y-183925428D01*
X46447193Y-185374176D01*
X47125847Y-186716314D01*
X47319470Y-187006092D01*
X48198326Y-187822068D01*
X53420395Y-182600000D01*
X53779605Y-182600000D01*
X59001674Y-187822068D01*
X59880530Y-187006092D01*
X60619437Y-185696160D01*
X61088591Y-184267244D01*
X61269963Y-182774257D01*
X61243615Y-182425743D01*
X70930037Y-182425743D01*
X71043417Y-183925428D01*
X71447193Y-185374176D01*
X72125847Y-186716314D01*
X72319470Y-187006092D01*
X73198326Y-187822068D01*
X78420395Y-182600000D01*
X78779605Y-182600000D01*
X84001674Y-187822068D01*
X84880530Y-187006092D01*
X85619437Y-185696160D01*
X86088591Y-184267244D01*
X86269963Y-182774257D01*
X86243615Y-182425743D01*
X95930037Y-182425743D01*
X96043417Y-183925428D01*
X96447193Y-185374176D01*
X97125847Y-186716314D01*
X97319470Y-187006092D01*
X98198326Y-187822068D01*
X103420395Y-182600000D01*
X103779605Y-182600000D01*
X109001674Y-187822068D01*
X109880530Y-187006092D01*
X110619437Y-185696160D01*
X111088591Y-184267244D01*
X111269963Y-182774257D01*
X111156583Y-181274572D01*
X110752807Y-179825824D01*
X110074153Y-178483686D01*
X109880530Y-178193908D01*
X109001674Y-177377932D01*
X103779605Y-182600000D01*
X103420395Y-182600000D01*
X98198326Y-177377932D01*
X97319470Y-178193908D01*
X96580563Y-179503840D01*
X96111409Y-180932756D01*
X95930037Y-182425743D01*
X86243615Y-182425743D01*
X86156583Y-181274572D01*
X85752807Y-179825824D01*
X85074153Y-178483686D01*
X84880530Y-178193908D01*
X84001674Y-177377932D01*
X78779605Y-182600000D01*
X78420395Y-182600000D01*
X73198326Y-177377932D01*
X72319470Y-178193908D01*
X71580563Y-179503840D01*
X71111409Y-180932756D01*
X70930037Y-182425743D01*
X61243615Y-182425743D01*
X61156583Y-181274572D01*
X60752807Y-179825824D01*
X60074153Y-178483686D01*
X59880530Y-178193908D01*
X59001674Y-177377932D01*
X53779605Y-182600000D01*
X53420395Y-182600000D01*
X48198326Y-177377932D01*
X47319470Y-178193908D01*
X46580563Y-179503840D01*
X46111409Y-180932756D01*
X45930037Y-182425743D01*
X36243615Y-182425743D01*
X36156583Y-181274572D01*
X35752807Y-179825824D01*
X35074153Y-178483686D01*
X34880530Y-178193908D01*
X34001674Y-177377932D01*
X28779605Y-182600000D01*
X28420395Y-182600000D01*
X23198326Y-177377932D01*
X22319470Y-178193908D01*
X21580563Y-179503840D01*
X21111409Y-180932756D01*
X20930037Y-182425743D01*
X16785000Y-182425743D01*
X16785000Y-177198326D01*
X23377932Y-177198326D01*
X28600000Y-182420395D01*
X33822068Y-177198326D01*
X48377932Y-177198326D01*
X53600000Y-182420395D01*
X58822068Y-177198326D01*
X73377932Y-177198326D01*
X78600000Y-182420395D01*
X83822068Y-177198326D01*
X98377932Y-177198326D01*
X103600000Y-182420395D01*
X108822068Y-177198326D01*
X108006092Y-176319470D01*
X106696160Y-175580563D01*
X105267244Y-175111409D01*
X103774257Y-174930037D01*
X102274572Y-175043417D01*
X100825824Y-175447193D01*
X99483686Y-176125847D01*
X99193908Y-176319470D01*
X98377932Y-177198326D01*
X83822068Y-177198326D01*
X83006092Y-176319470D01*
X81696160Y-175580563D01*
X80267244Y-175111409D01*
X78774257Y-174930037D01*
X77274572Y-175043417D01*
X75825824Y-175447193D01*
X74483686Y-176125847D01*
X74193908Y-176319470D01*
X73377932Y-177198326D01*
X58822068Y-177198326D01*
X58006092Y-176319470D01*
X56696160Y-175580563D01*
X55267244Y-175111409D01*
X53774257Y-174930037D01*
X52274572Y-175043417D01*
X50825824Y-175447193D01*
X49483686Y-176125847D01*
X49193908Y-176319470D01*
X48377932Y-177198326D01*
X33822068Y-177198326D01*
X33006092Y-176319470D01*
X31696160Y-175580563D01*
X30267244Y-175111409D01*
X28774257Y-174930037D01*
X27274572Y-175043417D01*
X25825824Y-175447193D01*
X24483686Y-176125847D01*
X24193908Y-176319470D01*
X23377932Y-177198326D01*
X16785000Y-177198326D01*
X16785000Y-151224971D01*
X37654634Y-151224971D01*
X38170783Y-151847788D01*
X39055768Y-152337630D01*
X40019314Y-152645407D01*
X41024389Y-152759293D01*
X42032370Y-152674910D01*
X43004520Y-152395501D01*
X43903481Y-151931803D01*
X44029217Y-151847788D01*
X44545366Y-151224971D01*
X87654634Y-151224971D01*
X88170783Y-151847788D01*
X89055768Y-152337630D01*
X90019314Y-152645407D01*
X91024389Y-152759293D01*
X92032370Y-152674910D01*
X93004520Y-152395501D01*
X93903481Y-151931803D01*
X94029217Y-151847788D01*
X94545366Y-151224971D01*
X91100000Y-147779605D01*
X87654634Y-151224971D01*
X44545366Y-151224971D01*
X41100000Y-147779605D01*
X37654634Y-151224971D01*
X16785000Y-151224971D01*
X16785000Y-147524389D01*
X35940707Y-147524389D01*
X36025090Y-148532370D01*
X36304499Y-149504520D01*
X36768197Y-150403481D01*
X36852212Y-150529217D01*
X37475029Y-151045366D01*
X40920395Y-147600000D01*
X41279605Y-147600000D01*
X44724971Y-151045366D01*
X45347788Y-150529217D01*
X45837630Y-149644232D01*
X46145407Y-148680686D01*
X46259293Y-147675611D01*
X46246634Y-147524389D01*
X85940707Y-147524389D01*
X86025090Y-148532370D01*
X86304499Y-149504520D01*
X86768197Y-150403481D01*
X86852212Y-150529217D01*
X87475029Y-151045366D01*
X90920395Y-147600000D01*
X91279605Y-147600000D01*
X94724971Y-151045366D01*
X95347788Y-150529217D01*
X95837630Y-149644232D01*
X96145407Y-148680686D01*
X96259293Y-147675611D01*
X96174910Y-146667630D01*
X95895501Y-145695480D01*
X95431803Y-144796519D01*
X95347788Y-144670783D01*
X94724971Y-144154634D01*
X91279605Y-147600000D01*
X90920395Y-147600000D01*
X87475029Y-144154634D01*
X86852212Y-144670783D01*
X86362370Y-145555768D01*
X86054593Y-146519314D01*
X85940707Y-147524389D01*
X46246634Y-147524389D01*
X46174910Y-146667630D01*
X45895501Y-145695480D01*
X45431803Y-144796519D01*
X45347788Y-144670783D01*
X44724971Y-144154634D01*
X41279605Y-147600000D01*
X40920395Y-147600000D01*
X37475029Y-144154634D01*
X36852212Y-144670783D01*
X36362370Y-145555768D01*
X36054593Y-146519314D01*
X35940707Y-147524389D01*
X16785000Y-147524389D01*
X16785000Y-143975029D01*
X37654634Y-143975029D01*
X41100000Y-147420395D01*
X44545366Y-143975029D01*
X87654634Y-143975029D01*
X91100000Y-147420395D01*
X94545366Y-143975029D01*
X94029217Y-143352212D01*
X93144232Y-142862370D01*
X92180686Y-142554593D01*
X91175611Y-142440707D01*
X90167630Y-142525090D01*
X89195480Y-142804499D01*
X88296519Y-143268197D01*
X88170783Y-143352212D01*
X87654634Y-143975029D01*
X44545366Y-143975029D01*
X44029217Y-143352212D01*
X43144232Y-142862370D01*
X42180686Y-142554593D01*
X41175611Y-142440707D01*
X40167630Y-142525090D01*
X39195480Y-142804499D01*
X38296519Y-143268197D01*
X38170783Y-143352212D01*
X37654634Y-143975029D01*
X16785000Y-143975029D01*
X16785000Y-106224971D01*
X37654634Y-106224971D01*
X38170783Y-106847788D01*
X39055768Y-107337630D01*
X40019314Y-107645407D01*
X41024389Y-107759293D01*
X42032370Y-107674910D01*
X43004520Y-107395501D01*
X43903481Y-106931803D01*
X44029217Y-106847788D01*
X44545366Y-106224971D01*
X87654634Y-106224971D01*
X88170783Y-106847788D01*
X89055768Y-107337630D01*
X90019314Y-107645407D01*
X91024389Y-107759293D01*
X92032370Y-107674910D01*
X93004520Y-107395501D01*
X93903481Y-106931803D01*
X94029217Y-106847788D01*
X94545366Y-106224971D01*
X91100000Y-102779605D01*
X87654634Y-106224971D01*
X44545366Y-106224971D01*
X41100000Y-102779605D01*
X37654634Y-106224971D01*
X16785000Y-106224971D01*
X16785000Y-102524389D01*
X35940707Y-102524389D01*
X36025090Y-103532370D01*
X36304499Y-104504520D01*
X36768197Y-105403481D01*
X36852212Y-105529217D01*
X37475029Y-106045366D01*
X40920395Y-102600000D01*
X41279605Y-102600000D01*
X44724971Y-106045366D01*
X45347788Y-105529217D01*
X45837630Y-104644232D01*
X46145407Y-103680686D01*
X46259293Y-102675611D01*
X46246634Y-102524389D01*
X85940707Y-102524389D01*
X86025090Y-103532370D01*
X86304499Y-104504520D01*
X86768197Y-105403481D01*
X86852212Y-105529217D01*
X87475029Y-106045366D01*
X90920395Y-102600000D01*
X91279605Y-102600000D01*
X94724971Y-106045366D01*
X95347788Y-105529217D01*
X95837630Y-104644232D01*
X96145407Y-103680686D01*
X96259293Y-102675611D01*
X96174910Y-101667630D01*
X95895501Y-100695480D01*
X95431803Y-99796519D01*
X95347788Y-99670783D01*
X94724971Y-99154634D01*
X91279605Y-102600000D01*
X90920395Y-102600000D01*
X87475029Y-99154634D01*
X86852212Y-99670783D01*
X86362370Y-100555768D01*
X86054593Y-101519314D01*
X85940707Y-102524389D01*
X46246634Y-102524389D01*
X46174910Y-101667630D01*
X45895501Y-100695480D01*
X45431803Y-99796519D01*
X45347788Y-99670783D01*
X44724971Y-99154634D01*
X41279605Y-102600000D01*
X40920395Y-102600000D01*
X37475029Y-99154634D01*
X36852212Y-99670783D01*
X36362370Y-100555768D01*
X36054593Y-101519314D01*
X35940707Y-102524389D01*
X16785000Y-102524389D01*
X16785000Y-98975029D01*
X37654634Y-98975029D01*
X41100000Y-102420395D01*
X44545366Y-98975029D01*
X87654634Y-98975029D01*
X91100000Y-102420395D01*
X94545366Y-98975029D01*
X94029217Y-98352212D01*
X93144232Y-97862370D01*
X92180686Y-97554593D01*
X91175611Y-97440707D01*
X90167630Y-97525090D01*
X89195480Y-97804499D01*
X88296519Y-98268197D01*
X88170783Y-98352212D01*
X87654634Y-98975029D01*
X44545366Y-98975029D01*
X44029217Y-98352212D01*
X43144232Y-97862370D01*
X42180686Y-97554593D01*
X41175611Y-97440707D01*
X40167630Y-97525090D01*
X39195480Y-97804499D01*
X38296519Y-98268197D01*
X38170783Y-98352212D01*
X37654634Y-98975029D01*
X16785000Y-98975029D01*
X16785000Y-75519609D01*
X48359997Y-75519609D01*
X48546073Y-75860766D01*
X48963409Y-76076513D01*
X49414815Y-76206696D01*
X49882946Y-76246313D01*
X50349811Y-76193842D01*
X50797468Y-76051297D01*
X51153927Y-75860766D01*
X51340003Y-75519609D01*
X49850000Y-74029605D01*
X48359997Y-75519609D01*
X16785000Y-75519609D01*
X16785000Y-73882946D01*
X47453687Y-73882946D01*
X47506158Y-74349811D01*
X47648703Y-74797468D01*
X47839234Y-75153927D01*
X48180391Y-75340003D01*
X49670395Y-73850000D01*
X48180391Y-72359997D01*
X47839234Y-72546073D01*
X47623487Y-72963409D01*
X47493304Y-73414815D01*
X47453687Y-73882946D01*
X16785000Y-73882946D01*
X16785000Y-57600000D01*
X44895000Y-57600000D01*
X44977979Y-59474100D01*
X45226266Y-61333533D01*
X45637919Y-63163746D01*
X46209715Y-64950415D01*
X46937180Y-66679557D01*
X47814619Y-68337639D01*
X48835167Y-69911684D01*
X49990835Y-71389374D01*
X50071136Y-71475189D01*
X49817054Y-71453687D01*
X49350189Y-71506158D01*
X48902532Y-71648703D01*
X48546073Y-71839234D01*
X48359997Y-72180391D01*
X49850000Y-73670395D01*
X49864143Y-73656253D01*
X50043748Y-73835858D01*
X50029605Y-73850000D01*
X51519609Y-75340003D01*
X51860766Y-75153927D01*
X52076513Y-74736591D01*
X52206696Y-74285185D01*
X52246313Y-73817054D01*
X52223027Y-73609867D01*
X52670369Y-74010272D01*
X54173263Y-75132968D01*
X55769500Y-76118445D01*
X57446587Y-76958989D01*
X59191399Y-77648024D01*
X60990280Y-78180155D01*
X62829151Y-78551219D01*
X64693622Y-78758311D01*
X66569099Y-78799811D01*
X68440905Y-78675393D01*
X70294390Y-78386032D01*
X72115048Y-77933992D01*
X73888630Y-77322811D01*
X75601256Y-76557272D01*
X77239522Y-75643367D01*
X77421453Y-75519609D01*
X80859997Y-75519609D01*
X81046073Y-75860766D01*
X81463409Y-76076513D01*
X81914815Y-76206696D01*
X82382946Y-76246313D01*
X82849811Y-76193842D01*
X83297468Y-76051297D01*
X83653927Y-75860766D01*
X83840003Y-75519609D01*
X82350000Y-74029605D01*
X80859997Y-75519609D01*
X77421453Y-75519609D01*
X78790605Y-74588248D01*
X79976102Y-73618076D01*
X79953687Y-73882946D01*
X80006158Y-74349811D01*
X80148703Y-74797468D01*
X80339234Y-75153927D01*
X80680391Y-75340003D01*
X82170395Y-73850000D01*
X82529605Y-73850000D01*
X84019609Y-75340003D01*
X84360766Y-75153927D01*
X84576513Y-74736591D01*
X84706696Y-74285185D01*
X84746313Y-73817054D01*
X84693842Y-73350189D01*
X84551297Y-72902532D01*
X84360766Y-72546073D01*
X84019609Y-72359997D01*
X82529605Y-73850000D01*
X82170395Y-73850000D01*
X82156253Y-73835858D01*
X82335858Y-73656253D01*
X82350000Y-73670395D01*
X83840003Y-72180391D01*
X83653927Y-71839234D01*
X83236591Y-71623487D01*
X82785185Y-71493304D01*
X82317054Y-71453687D01*
X82106540Y-71477347D01*
X82803348Y-70663315D01*
X83892522Y-69135953D01*
X84842445Y-67518305D01*
X85645683Y-65823034D01*
X86295950Y-64063406D01*
X86788156Y-62253194D01*
X87118450Y-60406563D01*
X87284245Y-58537968D01*
X87284245Y-56662032D01*
X87118450Y-54793437D01*
X86788156Y-52946806D01*
X86295950Y-51136594D01*
X85645683Y-49376966D01*
X84842445Y-47681695D01*
X83892522Y-46064047D01*
X82803348Y-44536685D01*
X82106788Y-43722942D01*
X82382946Y-43746313D01*
X82849811Y-43693842D01*
X83297468Y-43551297D01*
X83653927Y-43360766D01*
X83840003Y-43019609D01*
X82350000Y-41529605D01*
X82335858Y-41543748D01*
X82156253Y-41364143D01*
X82170395Y-41350000D01*
X82529605Y-41350000D01*
X84019609Y-42840003D01*
X84360766Y-42653927D01*
X84576513Y-42236591D01*
X84706696Y-41785185D01*
X84746313Y-41317054D01*
X84693842Y-40850189D01*
X84551297Y-40402532D01*
X84360766Y-40046073D01*
X84019609Y-39859997D01*
X82529605Y-41350000D01*
X82170395Y-41350000D01*
X80680391Y-39859997D01*
X80339234Y-40046073D01*
X80123487Y-40463409D01*
X79993304Y-40914815D01*
X79953687Y-41382946D01*
X79976045Y-41581877D01*
X78790605Y-40611752D01*
X77421454Y-39680391D01*
X80859997Y-39680391D01*
X82350000Y-41170395D01*
X83840003Y-39680391D01*
X83653927Y-39339234D01*
X83236591Y-39123487D01*
X82785185Y-38993304D01*
X82317054Y-38953687D01*
X81850189Y-39006158D01*
X81402532Y-39148703D01*
X81046073Y-39339234D01*
X80859997Y-39680391D01*
X77421454Y-39680391D01*
X77239522Y-39556633D01*
X75601256Y-38642728D01*
X73888630Y-37877189D01*
X72115048Y-37266008D01*
X70294390Y-36813968D01*
X68440905Y-36524607D01*
X66569099Y-36400189D01*
X64693622Y-36441689D01*
X62829151Y-36648781D01*
X60990280Y-37019845D01*
X59191399Y-37551976D01*
X57446587Y-38241011D01*
X55769500Y-39081555D01*
X54173263Y-40067032D01*
X52670369Y-41189728D01*
X52223217Y-41589963D01*
X52246313Y-41317054D01*
X52193842Y-40850189D01*
X52051297Y-40402532D01*
X51860766Y-40046073D01*
X51519609Y-39859997D01*
X50029605Y-41350000D01*
X50043748Y-41364142D01*
X49864143Y-41543748D01*
X49850000Y-41529605D01*
X48359997Y-43019609D01*
X48546073Y-43360766D01*
X48963409Y-43576513D01*
X49414815Y-43706696D01*
X49882946Y-43746313D01*
X50070768Y-43725204D01*
X49990835Y-43810626D01*
X48835167Y-45288316D01*
X47814619Y-46862361D01*
X46937180Y-48520443D01*
X46209715Y-50249585D01*
X45637919Y-52036254D01*
X45226266Y-53866467D01*
X44977979Y-55725900D01*
X44895000Y-57600000D01*
X16785000Y-57600000D01*
X16785000Y-41382946D01*
X47453687Y-41382946D01*
X47506158Y-41849811D01*
X47648703Y-42297468D01*
X47839234Y-42653927D01*
X48180391Y-42840003D01*
X49670395Y-41350000D01*
X48180391Y-39859997D01*
X47839234Y-40046073D01*
X47623487Y-40463409D01*
X47493304Y-40914815D01*
X47453687Y-41382946D01*
X16785000Y-41382946D01*
X16785000Y-39680391D01*
X48359997Y-39680391D01*
X49850000Y-41170395D01*
X51340003Y-39680391D01*
X51153927Y-39339234D01*
X50736591Y-39123487D01*
X50285185Y-38993304D01*
X49817054Y-38953687D01*
X49350189Y-39006158D01*
X48902532Y-39148703D01*
X48546073Y-39339234D01*
X48359997Y-39680391D01*
X16785000Y-39680391D01*
X16785000Y-11845446D01*
X16838519Y-11958331D01*
X17146970Y-12373424D01*
X17530475Y-12720365D01*
X17974296Y-12985822D01*
X18461377Y-13159593D01*
X18973000Y-13235000D01*
X20373000Y-13235000D01*
X20373000Y-10727000D01*
X20627000Y-10727000D01*
X20627000Y-13235000D01*
X22027000Y-13235000D01*
X22538623Y-13159593D01*
X23025704Y-12985822D01*
X23469525Y-12720365D01*
X23853030Y-12373424D01*
X24161481Y-11958331D01*
X24383025Y-11491038D01*
X24479667Y-11137162D01*
X107720333Y-11137162D01*
X107816975Y-11491038D01*
X108038519Y-11958331D01*
X108346970Y-12373424D01*
X108730475Y-12720365D01*
X109174296Y-12985822D01*
X109661377Y-13159593D01*
X110173000Y-13235000D01*
X111573000Y-13235000D01*
X111573000Y-10727000D01*
X107827009Y-10727000D01*
X107720333Y-11137162D01*
X24479667Y-11137162D01*
X24372991Y-10727000D01*
X20627000Y-10727000D01*
X20373000Y-10727000D01*
X20353000Y-10727000D01*
X20353000Y-10473000D01*
X20373000Y-10473000D01*
X20373000Y-10453000D01*
X20627000Y-10453000D01*
X20627000Y-10473000D01*
X24372991Y-10473000D01*
X24479667Y-10062838D01*
X24383025Y-9708962D01*
X24161481Y-9241669D01*
X23853030Y-8826576D01*
X23469525Y-8479635D01*
X23144112Y-8285000D01*
X109055888Y-8285000D01*
X108730475Y-8479635D01*
G37*
G04 #@! TD.AperFunction*
M02*
