G04 #@! TF.GenerationSoftware,KiCad,Pcbnew,5.1.10-88a1d61d58~90~ubuntu20.04.1*
G04 #@! TF.CreationDate,2021-10-27T17:33:58-04:00*
G04 #@! TF.ProjectId,joystick_panel,6a6f7973-7469-4636-9b5f-70616e656c2e,rev?*
G04 #@! TF.SameCoordinates,Original*
G04 #@! TF.FileFunction,Legend,Bot*
G04 #@! TF.FilePolarity,Positive*
%FSLAX46Y46*%
G04 Gerber Fmt 4.6, Leading zero omitted, Abs format (unit mm)*
G04 Created by KiCad (PCBNEW 5.1.10-88a1d61d58~90~ubuntu20.04.1) date 2021-10-27 17:33:58*
%MOMM*%
%LPD*%
G01*
G04 APERTURE LIST*
%ADD10C,0.150000*%
%ADD11C,0.010000*%
G04 APERTURE END LIST*
D10*
X30838095Y-190552380D02*
X30171428Y-191552380D01*
X30171428Y-190552380D02*
X30838095Y-191552380D01*
X29028571Y-190885714D02*
X29028571Y-191742857D01*
X29076190Y-191838095D01*
X29171428Y-191885714D01*
X29219047Y-191885714D01*
X29028571Y-190552380D02*
X29076190Y-190600000D01*
X29028571Y-190647619D01*
X28980952Y-190600000D01*
X29028571Y-190552380D01*
X29028571Y-190647619D01*
X28123809Y-191552380D02*
X28123809Y-191028571D01*
X28171428Y-190933333D01*
X28266666Y-190885714D01*
X28457142Y-190885714D01*
X28552380Y-190933333D01*
X28123809Y-191504761D02*
X28219047Y-191552380D01*
X28457142Y-191552380D01*
X28552380Y-191504761D01*
X28600000Y-191409523D01*
X28600000Y-191314285D01*
X28552380Y-191219047D01*
X28457142Y-191171428D01*
X28219047Y-191171428D01*
X28123809Y-191123809D01*
X27219047Y-191504761D02*
X27314285Y-191552380D01*
X27504761Y-191552380D01*
X27600000Y-191504761D01*
X27647619Y-191457142D01*
X27695238Y-191361904D01*
X27695238Y-191076190D01*
X27647619Y-190980952D01*
X27600000Y-190933333D01*
X27504761Y-190885714D01*
X27314285Y-190885714D01*
X27219047Y-190933333D01*
X26790476Y-191552380D02*
X26790476Y-190552380D01*
X26695238Y-191171428D02*
X26409523Y-191552380D01*
X26409523Y-190885714D02*
X26790476Y-191266666D01*
X55504761Y-191076190D02*
X55504761Y-191552380D01*
X55838095Y-190552380D02*
X55504761Y-191076190D01*
X55171428Y-190552380D01*
X54076190Y-190885714D02*
X54076190Y-191742857D01*
X54123809Y-191838095D01*
X54219047Y-191885714D01*
X54266666Y-191885714D01*
X54076190Y-190552380D02*
X54123809Y-190600000D01*
X54076190Y-190647619D01*
X54028571Y-190600000D01*
X54076190Y-190552380D01*
X54076190Y-190647619D01*
X53171428Y-191552380D02*
X53171428Y-191028571D01*
X53219047Y-190933333D01*
X53314285Y-190885714D01*
X53504761Y-190885714D01*
X53600000Y-190933333D01*
X53171428Y-191504761D02*
X53266666Y-191552380D01*
X53504761Y-191552380D01*
X53600000Y-191504761D01*
X53647619Y-191409523D01*
X53647619Y-191314285D01*
X53600000Y-191219047D01*
X53504761Y-191171428D01*
X53266666Y-191171428D01*
X53171428Y-191123809D01*
X52266666Y-191504761D02*
X52361904Y-191552380D01*
X52552380Y-191552380D01*
X52647619Y-191504761D01*
X52695238Y-191457142D01*
X52742857Y-191361904D01*
X52742857Y-191076190D01*
X52695238Y-190980952D01*
X52647619Y-190933333D01*
X52552380Y-190885714D01*
X52361904Y-190885714D01*
X52266666Y-190933333D01*
X51838095Y-191552380D02*
X51838095Y-190552380D01*
X51742857Y-191171428D02*
X51457142Y-191552380D01*
X51457142Y-190885714D02*
X51838095Y-191266666D01*
X83766666Y-191552380D02*
X83766666Y-190552380D01*
X83290476Y-190885714D02*
X83290476Y-191552380D01*
X83290476Y-190980952D02*
X83242857Y-190933333D01*
X83147619Y-190885714D01*
X83004761Y-190885714D01*
X82909523Y-190933333D01*
X82861904Y-191028571D01*
X82861904Y-191552380D01*
X82480952Y-190885714D02*
X82242857Y-191552380D01*
X82004761Y-190885714D01*
X81242857Y-191504761D02*
X81338095Y-191552380D01*
X81528571Y-191552380D01*
X81623809Y-191504761D01*
X81671428Y-191409523D01*
X81671428Y-191028571D01*
X81623809Y-190933333D01*
X81528571Y-190885714D01*
X81338095Y-190885714D01*
X81242857Y-190933333D01*
X81195238Y-191028571D01*
X81195238Y-191123809D01*
X81671428Y-191219047D01*
X80766666Y-191552380D02*
X80766666Y-190885714D01*
X80766666Y-191076190D02*
X80719047Y-190980952D01*
X80671428Y-190933333D01*
X80576190Y-190885714D01*
X80480952Y-190885714D01*
X80195238Y-191504761D02*
X80100000Y-191552380D01*
X79909523Y-191552380D01*
X79814285Y-191504761D01*
X79766666Y-191409523D01*
X79766666Y-191361904D01*
X79814285Y-191266666D01*
X79909523Y-191219047D01*
X80052380Y-191219047D01*
X80147619Y-191171428D01*
X80195238Y-191076190D01*
X80195238Y-191028571D01*
X80147619Y-190933333D01*
X80052380Y-190885714D01*
X79909523Y-190885714D01*
X79814285Y-190933333D01*
X78957142Y-191504761D02*
X79052380Y-191552380D01*
X79242857Y-191552380D01*
X79338095Y-191504761D01*
X79385714Y-191409523D01*
X79385714Y-191028571D01*
X79338095Y-190933333D01*
X79242857Y-190885714D01*
X79052380Y-190885714D01*
X78957142Y-190933333D01*
X78909523Y-191028571D01*
X78909523Y-191123809D01*
X79385714Y-191219047D01*
X77814285Y-190552380D02*
X77147619Y-191552380D01*
X77147619Y-190552380D02*
X77814285Y-191552380D01*
X76004761Y-190885714D02*
X76004761Y-191742857D01*
X76052380Y-191838095D01*
X76147619Y-191885714D01*
X76195238Y-191885714D01*
X76004761Y-190552380D02*
X76052380Y-190600000D01*
X76004761Y-190647619D01*
X75957142Y-190600000D01*
X76004761Y-190552380D01*
X76004761Y-190647619D01*
X75100000Y-191552380D02*
X75100000Y-191028571D01*
X75147619Y-190933333D01*
X75242857Y-190885714D01*
X75433333Y-190885714D01*
X75528571Y-190933333D01*
X75100000Y-191504761D02*
X75195238Y-191552380D01*
X75433333Y-191552380D01*
X75528571Y-191504761D01*
X75576190Y-191409523D01*
X75576190Y-191314285D01*
X75528571Y-191219047D01*
X75433333Y-191171428D01*
X75195238Y-191171428D01*
X75100000Y-191123809D01*
X74195238Y-191504761D02*
X74290476Y-191552380D01*
X74480952Y-191552380D01*
X74576190Y-191504761D01*
X74623809Y-191457142D01*
X74671428Y-191361904D01*
X74671428Y-191076190D01*
X74623809Y-190980952D01*
X74576190Y-190933333D01*
X74480952Y-190885714D01*
X74290476Y-190885714D01*
X74195238Y-190933333D01*
X73766666Y-191552380D02*
X73766666Y-190552380D01*
X73671428Y-191171428D02*
X73385714Y-191552380D01*
X73385714Y-190885714D02*
X73766666Y-191266666D01*
X109219047Y-191552380D02*
X109219047Y-190552380D01*
X108742857Y-190885714D02*
X108742857Y-191552380D01*
X108742857Y-190980952D02*
X108695238Y-190933333D01*
X108600000Y-190885714D01*
X108457142Y-190885714D01*
X108361904Y-190933333D01*
X108314285Y-191028571D01*
X108314285Y-191552380D01*
X107933333Y-190885714D02*
X107695238Y-191552380D01*
X107457142Y-190885714D01*
X106695238Y-191504761D02*
X106790476Y-191552380D01*
X106980952Y-191552380D01*
X107076190Y-191504761D01*
X107123809Y-191409523D01*
X107123809Y-191028571D01*
X107076190Y-190933333D01*
X106980952Y-190885714D01*
X106790476Y-190885714D01*
X106695238Y-190933333D01*
X106647619Y-191028571D01*
X106647619Y-191123809D01*
X107123809Y-191219047D01*
X106219047Y-191552380D02*
X106219047Y-190885714D01*
X106219047Y-191076190D02*
X106171428Y-190980952D01*
X106123809Y-190933333D01*
X106028571Y-190885714D01*
X105933333Y-190885714D01*
X105647619Y-191504761D02*
X105552380Y-191552380D01*
X105361904Y-191552380D01*
X105266666Y-191504761D01*
X105219047Y-191409523D01*
X105219047Y-191361904D01*
X105266666Y-191266666D01*
X105361904Y-191219047D01*
X105504761Y-191219047D01*
X105600000Y-191171428D01*
X105647619Y-191076190D01*
X105647619Y-191028571D01*
X105600000Y-190933333D01*
X105504761Y-190885714D01*
X105361904Y-190885714D01*
X105266666Y-190933333D01*
X104409523Y-191504761D02*
X104504761Y-191552380D01*
X104695238Y-191552380D01*
X104790476Y-191504761D01*
X104838095Y-191409523D01*
X104838095Y-191028571D01*
X104790476Y-190933333D01*
X104695238Y-190885714D01*
X104504761Y-190885714D01*
X104409523Y-190933333D01*
X104361904Y-191028571D01*
X104361904Y-191123809D01*
X104838095Y-191219047D01*
X102980952Y-191076190D02*
X102980952Y-191552380D01*
X103314285Y-190552380D02*
X102980952Y-191076190D01*
X102647619Y-190552380D01*
X101552380Y-190885714D02*
X101552380Y-191742857D01*
X101600000Y-191838095D01*
X101695238Y-191885714D01*
X101742857Y-191885714D01*
X101552380Y-190552380D02*
X101600000Y-190600000D01*
X101552380Y-190647619D01*
X101504761Y-190600000D01*
X101552380Y-190552380D01*
X101552380Y-190647619D01*
X100647619Y-191552380D02*
X100647619Y-191028571D01*
X100695238Y-190933333D01*
X100790476Y-190885714D01*
X100980952Y-190885714D01*
X101076190Y-190933333D01*
X100647619Y-191504761D02*
X100742857Y-191552380D01*
X100980952Y-191552380D01*
X101076190Y-191504761D01*
X101123809Y-191409523D01*
X101123809Y-191314285D01*
X101076190Y-191219047D01*
X100980952Y-191171428D01*
X100742857Y-191171428D01*
X100647619Y-191123809D01*
X99742857Y-191504761D02*
X99838095Y-191552380D01*
X100028571Y-191552380D01*
X100123809Y-191504761D01*
X100171428Y-191457142D01*
X100219047Y-191361904D01*
X100219047Y-191076190D01*
X100171428Y-190980952D01*
X100123809Y-190933333D01*
X100028571Y-190885714D01*
X99838095Y-190885714D01*
X99742857Y-190933333D01*
X99314285Y-191552380D02*
X99314285Y-190552380D01*
X99219047Y-191171428D02*
X98933333Y-191552380D01*
X98933333Y-190885714D02*
X99314285Y-191266666D01*
X95266666Y-154576190D02*
X95266666Y-155052380D01*
X95600000Y-154052380D02*
X95266666Y-154576190D01*
X94933333Y-154052380D01*
X93647619Y-154052380D02*
X93457142Y-154052380D01*
X93361904Y-154100000D01*
X93266666Y-154195238D01*
X93219047Y-154385714D01*
X93219047Y-154719047D01*
X93266666Y-154909523D01*
X93361904Y-155004761D01*
X93457142Y-155052380D01*
X93647619Y-155052380D01*
X93742857Y-155004761D01*
X93838095Y-154909523D01*
X93885714Y-154719047D01*
X93885714Y-154385714D01*
X93838095Y-154195238D01*
X93742857Y-154100000D01*
X93647619Y-154052380D01*
X92933333Y-154385714D02*
X92552380Y-154385714D01*
X92790476Y-155052380D02*
X92790476Y-154195238D01*
X92742857Y-154100000D01*
X92647619Y-154052380D01*
X92552380Y-154052380D01*
X92361904Y-154385714D02*
X91980952Y-154385714D01*
X92219047Y-155052380D02*
X92219047Y-154195238D01*
X92171428Y-154100000D01*
X92076190Y-154052380D01*
X91980952Y-154052380D01*
X91695238Y-155004761D02*
X91600000Y-155052380D01*
X91409523Y-155052380D01*
X91314285Y-155004761D01*
X91266666Y-154909523D01*
X91266666Y-154861904D01*
X91314285Y-154766666D01*
X91409523Y-154719047D01*
X91552380Y-154719047D01*
X91647619Y-154671428D01*
X91695238Y-154576190D01*
X91695238Y-154528571D01*
X91647619Y-154433333D01*
X91552380Y-154385714D01*
X91409523Y-154385714D01*
X91314285Y-154433333D01*
X90457142Y-155004761D02*
X90552380Y-155052380D01*
X90742857Y-155052380D01*
X90838095Y-155004761D01*
X90885714Y-154909523D01*
X90885714Y-154528571D01*
X90838095Y-154433333D01*
X90742857Y-154385714D01*
X90552380Y-154385714D01*
X90457142Y-154433333D01*
X90409523Y-154528571D01*
X90409523Y-154623809D01*
X90885714Y-154719047D01*
X90123809Y-154385714D02*
X89742857Y-154385714D01*
X89980952Y-154052380D02*
X89980952Y-154909523D01*
X89933333Y-155004761D01*
X89838095Y-155052380D01*
X89742857Y-155052380D01*
X88647619Y-154385714D02*
X88647619Y-155385714D01*
X88647619Y-154433333D02*
X88552380Y-154385714D01*
X88361904Y-154385714D01*
X88266666Y-154433333D01*
X88219047Y-154480952D01*
X88171428Y-154576190D01*
X88171428Y-154861904D01*
X88219047Y-154957142D01*
X88266666Y-155004761D01*
X88361904Y-155052380D01*
X88552380Y-155052380D01*
X88647619Y-155004761D01*
X87600000Y-155052380D02*
X87695238Y-155004761D01*
X87742857Y-154957142D01*
X87790476Y-154861904D01*
X87790476Y-154576190D01*
X87742857Y-154480952D01*
X87695238Y-154433333D01*
X87600000Y-154385714D01*
X87457142Y-154385714D01*
X87361904Y-154433333D01*
X87314285Y-154480952D01*
X87266666Y-154576190D01*
X87266666Y-154861904D01*
X87314285Y-154957142D01*
X87361904Y-155004761D01*
X87457142Y-155052380D01*
X87600000Y-155052380D01*
X86980952Y-154385714D02*
X86600000Y-154385714D01*
X86838095Y-154052380D02*
X86838095Y-154909523D01*
X86790476Y-155004761D01*
X86695238Y-155052380D01*
X86600000Y-155052380D01*
X45600000Y-154052380D02*
X44933333Y-155052380D01*
X44933333Y-154052380D02*
X45600000Y-155052380D01*
X43600000Y-154052380D02*
X43409523Y-154052380D01*
X43314285Y-154100000D01*
X43219047Y-154195238D01*
X43171428Y-154385714D01*
X43171428Y-154719047D01*
X43219047Y-154909523D01*
X43314285Y-155004761D01*
X43409523Y-155052380D01*
X43600000Y-155052380D01*
X43695238Y-155004761D01*
X43790476Y-154909523D01*
X43838095Y-154719047D01*
X43838095Y-154385714D01*
X43790476Y-154195238D01*
X43695238Y-154100000D01*
X43600000Y-154052380D01*
X42885714Y-154385714D02*
X42504761Y-154385714D01*
X42742857Y-155052380D02*
X42742857Y-154195238D01*
X42695238Y-154100000D01*
X42600000Y-154052380D01*
X42504761Y-154052380D01*
X42314285Y-154385714D02*
X41933333Y-154385714D01*
X42171428Y-155052380D02*
X42171428Y-154195238D01*
X42123809Y-154100000D01*
X42028571Y-154052380D01*
X41933333Y-154052380D01*
X41647619Y-155004761D02*
X41552380Y-155052380D01*
X41361904Y-155052380D01*
X41266666Y-155004761D01*
X41219047Y-154909523D01*
X41219047Y-154861904D01*
X41266666Y-154766666D01*
X41361904Y-154719047D01*
X41504761Y-154719047D01*
X41600000Y-154671428D01*
X41647619Y-154576190D01*
X41647619Y-154528571D01*
X41600000Y-154433333D01*
X41504761Y-154385714D01*
X41361904Y-154385714D01*
X41266666Y-154433333D01*
X40409523Y-155004761D02*
X40504761Y-155052380D01*
X40695238Y-155052380D01*
X40790476Y-155004761D01*
X40838095Y-154909523D01*
X40838095Y-154528571D01*
X40790476Y-154433333D01*
X40695238Y-154385714D01*
X40504761Y-154385714D01*
X40409523Y-154433333D01*
X40361904Y-154528571D01*
X40361904Y-154623809D01*
X40838095Y-154719047D01*
X40076190Y-154385714D02*
X39695238Y-154385714D01*
X39933333Y-154052380D02*
X39933333Y-154909523D01*
X39885714Y-155004761D01*
X39790476Y-155052380D01*
X39695238Y-155052380D01*
X38600000Y-154385714D02*
X38600000Y-155385714D01*
X38600000Y-154433333D02*
X38504761Y-154385714D01*
X38314285Y-154385714D01*
X38219047Y-154433333D01*
X38171428Y-154480952D01*
X38123809Y-154576190D01*
X38123809Y-154861904D01*
X38171428Y-154957142D01*
X38219047Y-155004761D01*
X38314285Y-155052380D01*
X38504761Y-155052380D01*
X38600000Y-155004761D01*
X37552380Y-155052380D02*
X37647619Y-155004761D01*
X37695238Y-154957142D01*
X37742857Y-154861904D01*
X37742857Y-154576190D01*
X37695238Y-154480952D01*
X37647619Y-154433333D01*
X37552380Y-154385714D01*
X37409523Y-154385714D01*
X37314285Y-154433333D01*
X37266666Y-154480952D01*
X37219047Y-154576190D01*
X37219047Y-154861904D01*
X37266666Y-154957142D01*
X37314285Y-155004761D01*
X37409523Y-155052380D01*
X37552380Y-155052380D01*
X36933333Y-154385714D02*
X36552380Y-154385714D01*
X36790476Y-154052380D02*
X36790476Y-154909523D01*
X36742857Y-155004761D01*
X36647619Y-155052380D01*
X36552380Y-155052380D01*
X45671428Y-109552380D02*
X45004761Y-110552380D01*
X45004761Y-109552380D02*
X45671428Y-110552380D01*
X43290476Y-110552380D02*
X43623809Y-110076190D01*
X43861904Y-110552380D02*
X43861904Y-109552380D01*
X43480952Y-109552380D01*
X43385714Y-109600000D01*
X43338095Y-109647619D01*
X43290476Y-109742857D01*
X43290476Y-109885714D01*
X43338095Y-109980952D01*
X43385714Y-110028571D01*
X43480952Y-110076190D01*
X43861904Y-110076190D01*
X42433333Y-110552380D02*
X42433333Y-110028571D01*
X42480952Y-109933333D01*
X42576190Y-109885714D01*
X42766666Y-109885714D01*
X42861904Y-109933333D01*
X42433333Y-110504761D02*
X42528571Y-110552380D01*
X42766666Y-110552380D01*
X42861904Y-110504761D01*
X42909523Y-110409523D01*
X42909523Y-110314285D01*
X42861904Y-110219047D01*
X42766666Y-110171428D01*
X42528571Y-110171428D01*
X42433333Y-110123809D01*
X41957142Y-109885714D02*
X41957142Y-110552380D01*
X41957142Y-109980952D02*
X41909523Y-109933333D01*
X41814285Y-109885714D01*
X41671428Y-109885714D01*
X41576190Y-109933333D01*
X41528571Y-110028571D01*
X41528571Y-110552380D01*
X40623809Y-109885714D02*
X40623809Y-110695238D01*
X40671428Y-110790476D01*
X40719047Y-110838095D01*
X40814285Y-110885714D01*
X40957142Y-110885714D01*
X41052380Y-110838095D01*
X40623809Y-110504761D02*
X40719047Y-110552380D01*
X40909523Y-110552380D01*
X41004761Y-110504761D01*
X41052380Y-110457142D01*
X41100000Y-110361904D01*
X41100000Y-110076190D01*
X41052380Y-109980952D01*
X41004761Y-109933333D01*
X40909523Y-109885714D01*
X40719047Y-109885714D01*
X40623809Y-109933333D01*
X39766666Y-110504761D02*
X39861904Y-110552380D01*
X40052380Y-110552380D01*
X40147619Y-110504761D01*
X40195238Y-110409523D01*
X40195238Y-110028571D01*
X40147619Y-109933333D01*
X40052380Y-109885714D01*
X39861904Y-109885714D01*
X39766666Y-109933333D01*
X39719047Y-110028571D01*
X39719047Y-110123809D01*
X40195238Y-110219047D01*
X38528571Y-109885714D02*
X38528571Y-110885714D01*
X38528571Y-109933333D02*
X38433333Y-109885714D01*
X38242857Y-109885714D01*
X38147619Y-109933333D01*
X38100000Y-109980952D01*
X38052380Y-110076190D01*
X38052380Y-110361904D01*
X38100000Y-110457142D01*
X38147619Y-110504761D01*
X38242857Y-110552380D01*
X38433333Y-110552380D01*
X38528571Y-110504761D01*
X37480952Y-110552380D02*
X37576190Y-110504761D01*
X37623809Y-110457142D01*
X37671428Y-110361904D01*
X37671428Y-110076190D01*
X37623809Y-109980952D01*
X37576190Y-109933333D01*
X37480952Y-109885714D01*
X37338095Y-109885714D01*
X37242857Y-109933333D01*
X37195238Y-109980952D01*
X37147619Y-110076190D01*
X37147619Y-110361904D01*
X37195238Y-110457142D01*
X37242857Y-110504761D01*
X37338095Y-110552380D01*
X37480952Y-110552380D01*
X36861904Y-109885714D02*
X36480952Y-109885714D01*
X36719047Y-109552380D02*
X36719047Y-110409523D01*
X36671428Y-110504761D01*
X36576190Y-110552380D01*
X36480952Y-110552380D01*
X95338095Y-110076190D02*
X95338095Y-110552380D01*
X95671428Y-109552380D02*
X95338095Y-110076190D01*
X95004761Y-109552380D01*
X93338095Y-110552380D02*
X93671428Y-110076190D01*
X93909523Y-110552380D02*
X93909523Y-109552380D01*
X93528571Y-109552380D01*
X93433333Y-109600000D01*
X93385714Y-109647619D01*
X93338095Y-109742857D01*
X93338095Y-109885714D01*
X93385714Y-109980952D01*
X93433333Y-110028571D01*
X93528571Y-110076190D01*
X93909523Y-110076190D01*
X92480952Y-110552380D02*
X92480952Y-110028571D01*
X92528571Y-109933333D01*
X92623809Y-109885714D01*
X92814285Y-109885714D01*
X92909523Y-109933333D01*
X92480952Y-110504761D02*
X92576190Y-110552380D01*
X92814285Y-110552380D01*
X92909523Y-110504761D01*
X92957142Y-110409523D01*
X92957142Y-110314285D01*
X92909523Y-110219047D01*
X92814285Y-110171428D01*
X92576190Y-110171428D01*
X92480952Y-110123809D01*
X92004761Y-109885714D02*
X92004761Y-110552380D01*
X92004761Y-109980952D02*
X91957142Y-109933333D01*
X91861904Y-109885714D01*
X91719047Y-109885714D01*
X91623809Y-109933333D01*
X91576190Y-110028571D01*
X91576190Y-110552380D01*
X90671428Y-109885714D02*
X90671428Y-110695238D01*
X90719047Y-110790476D01*
X90766666Y-110838095D01*
X90861904Y-110885714D01*
X91004761Y-110885714D01*
X91100000Y-110838095D01*
X90671428Y-110504761D02*
X90766666Y-110552380D01*
X90957142Y-110552380D01*
X91052380Y-110504761D01*
X91100000Y-110457142D01*
X91147619Y-110361904D01*
X91147619Y-110076190D01*
X91100000Y-109980952D01*
X91052380Y-109933333D01*
X90957142Y-109885714D01*
X90766666Y-109885714D01*
X90671428Y-109933333D01*
X89814285Y-110504761D02*
X89909523Y-110552380D01*
X90100000Y-110552380D01*
X90195238Y-110504761D01*
X90242857Y-110409523D01*
X90242857Y-110028571D01*
X90195238Y-109933333D01*
X90100000Y-109885714D01*
X89909523Y-109885714D01*
X89814285Y-109933333D01*
X89766666Y-110028571D01*
X89766666Y-110123809D01*
X90242857Y-110219047D01*
X88576190Y-109885714D02*
X88576190Y-110885714D01*
X88576190Y-109933333D02*
X88480952Y-109885714D01*
X88290476Y-109885714D01*
X88195238Y-109933333D01*
X88147619Y-109980952D01*
X88100000Y-110076190D01*
X88100000Y-110361904D01*
X88147619Y-110457142D01*
X88195238Y-110504761D01*
X88290476Y-110552380D01*
X88480952Y-110552380D01*
X88576190Y-110504761D01*
X87528571Y-110552380D02*
X87623809Y-110504761D01*
X87671428Y-110457142D01*
X87719047Y-110361904D01*
X87719047Y-110076190D01*
X87671428Y-109980952D01*
X87623809Y-109933333D01*
X87528571Y-109885714D01*
X87385714Y-109885714D01*
X87290476Y-109933333D01*
X87242857Y-109980952D01*
X87195238Y-110076190D01*
X87195238Y-110361904D01*
X87242857Y-110457142D01*
X87290476Y-110504761D01*
X87385714Y-110552380D01*
X87528571Y-110552380D01*
X86909523Y-109885714D02*
X86528571Y-109885714D01*
X86766666Y-109552380D02*
X86766666Y-110409523D01*
X86719047Y-110504761D01*
X86623809Y-110552380D01*
X86528571Y-110552380D01*
X77100000Y-196402380D02*
X77100000Y-195402380D01*
X76719047Y-195402380D01*
X76623809Y-195450000D01*
X76576190Y-195497619D01*
X76528571Y-195592857D01*
X76528571Y-195735714D01*
X76576190Y-195830952D01*
X76623809Y-195878571D01*
X76719047Y-195926190D01*
X77100000Y-195926190D01*
X75671428Y-196402380D02*
X75671428Y-195878571D01*
X75719047Y-195783333D01*
X75814285Y-195735714D01*
X76004761Y-195735714D01*
X76100000Y-195783333D01*
X75671428Y-196354761D02*
X75766666Y-196402380D01*
X76004761Y-196402380D01*
X76100000Y-196354761D01*
X76147619Y-196259523D01*
X76147619Y-196164285D01*
X76100000Y-196069047D01*
X76004761Y-196021428D01*
X75766666Y-196021428D01*
X75671428Y-195973809D01*
X75195238Y-195735714D02*
X75195238Y-196402380D01*
X75195238Y-195830952D02*
X75147619Y-195783333D01*
X75052380Y-195735714D01*
X74909523Y-195735714D01*
X74814285Y-195783333D01*
X74766666Y-195878571D01*
X74766666Y-196402380D01*
X73909523Y-196354761D02*
X74004761Y-196402380D01*
X74195238Y-196402380D01*
X74290476Y-196354761D01*
X74338095Y-196259523D01*
X74338095Y-195878571D01*
X74290476Y-195783333D01*
X74195238Y-195735714D01*
X74004761Y-195735714D01*
X73909523Y-195783333D01*
X73861904Y-195878571D01*
X73861904Y-195973809D01*
X74338095Y-196069047D01*
X73290476Y-196402380D02*
X73385714Y-196354761D01*
X73433333Y-196259523D01*
X73433333Y-195402380D01*
X71719047Y-196402380D02*
X71719047Y-195402380D01*
X71719047Y-196354761D02*
X71814285Y-196402380D01*
X72004761Y-196402380D01*
X72100000Y-196354761D01*
X72147619Y-196307142D01*
X72195238Y-196211904D01*
X72195238Y-195926190D01*
X72147619Y-195830952D01*
X72100000Y-195783333D01*
X72004761Y-195735714D01*
X71814285Y-195735714D01*
X71719047Y-195783333D01*
X70861904Y-196354761D02*
X70957142Y-196402380D01*
X71147619Y-196402380D01*
X71242857Y-196354761D01*
X71290476Y-196259523D01*
X71290476Y-195878571D01*
X71242857Y-195783333D01*
X71147619Y-195735714D01*
X70957142Y-195735714D01*
X70861904Y-195783333D01*
X70814285Y-195878571D01*
X70814285Y-195973809D01*
X71290476Y-196069047D01*
X70433333Y-196354761D02*
X70338095Y-196402380D01*
X70147619Y-196402380D01*
X70052380Y-196354761D01*
X70004761Y-196259523D01*
X70004761Y-196211904D01*
X70052380Y-196116666D01*
X70147619Y-196069047D01*
X70290476Y-196069047D01*
X70385714Y-196021428D01*
X70433333Y-195926190D01*
X70433333Y-195878571D01*
X70385714Y-195783333D01*
X70290476Y-195735714D01*
X70147619Y-195735714D01*
X70052380Y-195783333D01*
X69576190Y-196402380D02*
X69576190Y-195735714D01*
X69576190Y-195402380D02*
X69623809Y-195450000D01*
X69576190Y-195497619D01*
X69528571Y-195450000D01*
X69576190Y-195402380D01*
X69576190Y-195497619D01*
X68671428Y-195735714D02*
X68671428Y-196545238D01*
X68719047Y-196640476D01*
X68766666Y-196688095D01*
X68861904Y-196735714D01*
X69004761Y-196735714D01*
X69100000Y-196688095D01*
X68671428Y-196354761D02*
X68766666Y-196402380D01*
X68957142Y-196402380D01*
X69052380Y-196354761D01*
X69100000Y-196307142D01*
X69147619Y-196211904D01*
X69147619Y-195926190D01*
X69100000Y-195830952D01*
X69052380Y-195783333D01*
X68957142Y-195735714D01*
X68766666Y-195735714D01*
X68671428Y-195783333D01*
X68195238Y-195735714D02*
X68195238Y-196402380D01*
X68195238Y-195830952D02*
X68147619Y-195783333D01*
X68052380Y-195735714D01*
X67909523Y-195735714D01*
X67814285Y-195783333D01*
X67766666Y-195878571D01*
X67766666Y-196402380D01*
X66528571Y-196402380D02*
X66528571Y-195402380D01*
X66528571Y-195783333D02*
X66433333Y-195735714D01*
X66242857Y-195735714D01*
X66147619Y-195783333D01*
X66100000Y-195830952D01*
X66052380Y-195926190D01*
X66052380Y-196211904D01*
X66100000Y-196307142D01*
X66147619Y-196354761D01*
X66242857Y-196402380D01*
X66433333Y-196402380D01*
X66528571Y-196354761D01*
X65719047Y-195735714D02*
X65480952Y-196402380D01*
X65242857Y-195735714D02*
X65480952Y-196402380D01*
X65576190Y-196640476D01*
X65623809Y-196688095D01*
X65719047Y-196735714D01*
X63528571Y-196402380D02*
X63861904Y-195926190D01*
X64100000Y-196402380D02*
X64100000Y-195402380D01*
X63719047Y-195402380D01*
X63623809Y-195450000D01*
X63576190Y-195497619D01*
X63528571Y-195592857D01*
X63528571Y-195735714D01*
X63576190Y-195830952D01*
X63623809Y-195878571D01*
X63719047Y-195926190D01*
X64100000Y-195926190D01*
X63100000Y-196402380D02*
X63100000Y-195735714D01*
X63100000Y-195402380D02*
X63147619Y-195450000D01*
X63100000Y-195497619D01*
X63052380Y-195450000D01*
X63100000Y-195402380D01*
X63100000Y-195497619D01*
X62195238Y-196354761D02*
X62290476Y-196402380D01*
X62480952Y-196402380D01*
X62576190Y-196354761D01*
X62623809Y-196307142D01*
X62671428Y-196211904D01*
X62671428Y-195926190D01*
X62623809Y-195830952D01*
X62576190Y-195783333D01*
X62480952Y-195735714D01*
X62290476Y-195735714D01*
X62195238Y-195783333D01*
X61766666Y-196402380D02*
X61766666Y-195402380D01*
X61338095Y-196402380D02*
X61338095Y-195878571D01*
X61385714Y-195783333D01*
X61480952Y-195735714D01*
X61623809Y-195735714D01*
X61719047Y-195783333D01*
X61766666Y-195830952D01*
X60100000Y-196402380D02*
X60100000Y-195402380D01*
X60100000Y-195878571D02*
X59528571Y-195878571D01*
X59528571Y-196402380D02*
X59528571Y-195402380D01*
X58909523Y-196402380D02*
X59004761Y-196354761D01*
X59052380Y-196307142D01*
X59100000Y-196211904D01*
X59100000Y-195926190D01*
X59052380Y-195830952D01*
X59004761Y-195783333D01*
X58909523Y-195735714D01*
X58766666Y-195735714D01*
X58671428Y-195783333D01*
X58623809Y-195830952D01*
X58576190Y-195926190D01*
X58576190Y-196211904D01*
X58623809Y-196307142D01*
X58671428Y-196354761D01*
X58766666Y-196402380D01*
X58909523Y-196402380D01*
X58004761Y-196402380D02*
X58100000Y-196354761D01*
X58147619Y-196259523D01*
X58147619Y-195402380D01*
X57623809Y-196402380D02*
X57623809Y-195735714D01*
X57623809Y-195830952D02*
X57576190Y-195783333D01*
X57480952Y-195735714D01*
X57338095Y-195735714D01*
X57242857Y-195783333D01*
X57195238Y-195878571D01*
X57195238Y-196402380D01*
X57195238Y-195878571D02*
X57147619Y-195783333D01*
X57052380Y-195735714D01*
X56909523Y-195735714D01*
X56814285Y-195783333D01*
X56766666Y-195878571D01*
X56766666Y-196402380D01*
X55909523Y-196354761D02*
X56004761Y-196402380D01*
X56195238Y-196402380D01*
X56290476Y-196354761D01*
X56338095Y-196259523D01*
X56338095Y-195878571D01*
X56290476Y-195783333D01*
X56195238Y-195735714D01*
X56004761Y-195735714D01*
X55909523Y-195783333D01*
X55861904Y-195878571D01*
X55861904Y-195973809D01*
X56338095Y-196069047D01*
X55480952Y-196354761D02*
X55385714Y-196402380D01*
X55195238Y-196402380D01*
X55100000Y-196354761D01*
X55052380Y-196259523D01*
X55052380Y-196211904D01*
X55100000Y-196116666D01*
X55195238Y-196069047D01*
X55338095Y-196069047D01*
X55433333Y-196021428D01*
X55480952Y-195926190D01*
X55480952Y-195878571D01*
X55433333Y-195783333D01*
X55338095Y-195735714D01*
X55195238Y-195735714D01*
X55100000Y-195783333D01*
X73885714Y-197957142D02*
X73933333Y-198004761D01*
X74076190Y-198052380D01*
X74171428Y-198052380D01*
X74314285Y-198004761D01*
X74409523Y-197909523D01*
X74457142Y-197814285D01*
X74504761Y-197623809D01*
X74504761Y-197480952D01*
X74457142Y-197290476D01*
X74409523Y-197195238D01*
X74314285Y-197100000D01*
X74171428Y-197052380D01*
X74076190Y-197052380D01*
X73933333Y-197100000D01*
X73885714Y-197147619D01*
X72885714Y-197957142D02*
X72933333Y-198004761D01*
X73076190Y-198052380D01*
X73171428Y-198052380D01*
X73314285Y-198004761D01*
X73409523Y-197909523D01*
X73457142Y-197814285D01*
X73504761Y-197623809D01*
X73504761Y-197480952D01*
X73457142Y-197290476D01*
X73409523Y-197195238D01*
X73314285Y-197100000D01*
X73171428Y-197052380D01*
X73076190Y-197052380D01*
X72933333Y-197100000D01*
X72885714Y-197147619D01*
X72266666Y-197052380D02*
X72171428Y-197052380D01*
X72076190Y-197100000D01*
X72028571Y-197147619D01*
X71980952Y-197242857D01*
X71933333Y-197433333D01*
X71933333Y-197671428D01*
X71980952Y-197861904D01*
X72028571Y-197957142D01*
X72076190Y-198004761D01*
X72171428Y-198052380D01*
X72266666Y-198052380D01*
X72361904Y-198004761D01*
X72409523Y-197957142D01*
X72457142Y-197861904D01*
X72504761Y-197671428D01*
X72504761Y-197433333D01*
X72457142Y-197242857D01*
X72409523Y-197147619D01*
X72361904Y-197100000D01*
X72266666Y-197052380D01*
X70219047Y-198052380D02*
X70790476Y-198052380D01*
X70504761Y-198052380D02*
X70504761Y-197052380D01*
X70600000Y-197195238D01*
X70695238Y-197290476D01*
X70790476Y-197338095D01*
X69790476Y-197957142D02*
X69742857Y-198004761D01*
X69790476Y-198052380D01*
X69838095Y-198004761D01*
X69790476Y-197957142D01*
X69790476Y-198052380D01*
X69123809Y-197052380D02*
X69028571Y-197052380D01*
X68933333Y-197100000D01*
X68885714Y-197147619D01*
X68838095Y-197242857D01*
X68790476Y-197433333D01*
X68790476Y-197671428D01*
X68838095Y-197861904D01*
X68885714Y-197957142D01*
X68933333Y-198004761D01*
X69028571Y-198052380D01*
X69123809Y-198052380D01*
X69219047Y-198004761D01*
X69266666Y-197957142D01*
X69314285Y-197861904D01*
X69361904Y-197671428D01*
X69361904Y-197433333D01*
X69314285Y-197242857D01*
X69266666Y-197147619D01*
X69219047Y-197100000D01*
X69123809Y-197052380D01*
X67409523Y-197052380D02*
X67219047Y-197052380D01*
X67123809Y-197100000D01*
X67028571Y-197195238D01*
X66980952Y-197385714D01*
X66980952Y-197719047D01*
X67028571Y-197909523D01*
X67123809Y-198004761D01*
X67219047Y-198052380D01*
X67409523Y-198052380D01*
X67504761Y-198004761D01*
X67600000Y-197909523D01*
X67647619Y-197719047D01*
X67647619Y-197385714D01*
X67600000Y-197195238D01*
X67504761Y-197100000D01*
X67409523Y-197052380D01*
X66123809Y-198004761D02*
X66219047Y-198052380D01*
X66409523Y-198052380D01*
X66504761Y-198004761D01*
X66552380Y-197957142D01*
X66600000Y-197861904D01*
X66600000Y-197576190D01*
X66552380Y-197480952D01*
X66504761Y-197433333D01*
X66409523Y-197385714D01*
X66219047Y-197385714D01*
X66123809Y-197433333D01*
X65838095Y-197385714D02*
X65457142Y-197385714D01*
X65695238Y-197052380D02*
X65695238Y-197909523D01*
X65647619Y-198004761D01*
X65552380Y-198052380D01*
X65457142Y-198052380D01*
X64980952Y-198052380D02*
X65076190Y-198004761D01*
X65123809Y-197957142D01*
X65171428Y-197861904D01*
X65171428Y-197576190D01*
X65123809Y-197480952D01*
X65076190Y-197433333D01*
X64980952Y-197385714D01*
X64838095Y-197385714D01*
X64742857Y-197433333D01*
X64695238Y-197480952D01*
X64647619Y-197576190D01*
X64647619Y-197861904D01*
X64695238Y-197957142D01*
X64742857Y-198004761D01*
X64838095Y-198052380D01*
X64980952Y-198052380D01*
X64219047Y-198052380D02*
X64219047Y-197052380D01*
X64219047Y-197433333D02*
X64123809Y-197385714D01*
X63933333Y-197385714D01*
X63838095Y-197433333D01*
X63790476Y-197480952D01*
X63742857Y-197576190D01*
X63742857Y-197861904D01*
X63790476Y-197957142D01*
X63838095Y-198004761D01*
X63933333Y-198052380D01*
X64123809Y-198052380D01*
X64219047Y-198004761D01*
X62933333Y-198004761D02*
X63028571Y-198052380D01*
X63219047Y-198052380D01*
X63314285Y-198004761D01*
X63361904Y-197909523D01*
X63361904Y-197528571D01*
X63314285Y-197433333D01*
X63219047Y-197385714D01*
X63028571Y-197385714D01*
X62933333Y-197433333D01*
X62885714Y-197528571D01*
X62885714Y-197623809D01*
X63361904Y-197719047D01*
X62457142Y-198052380D02*
X62457142Y-197385714D01*
X62457142Y-197576190D02*
X62409523Y-197480952D01*
X62361904Y-197433333D01*
X62266666Y-197385714D01*
X62171428Y-197385714D01*
X61123809Y-197147619D02*
X61076190Y-197100000D01*
X60980952Y-197052380D01*
X60742857Y-197052380D01*
X60647619Y-197100000D01*
X60600000Y-197147619D01*
X60552380Y-197242857D01*
X60552380Y-197338095D01*
X60600000Y-197480952D01*
X61171428Y-198052380D01*
X60552380Y-198052380D01*
X59933333Y-197052380D02*
X59838095Y-197052380D01*
X59742857Y-197100000D01*
X59695238Y-197147619D01*
X59647619Y-197242857D01*
X59600000Y-197433333D01*
X59600000Y-197671428D01*
X59647619Y-197861904D01*
X59695238Y-197957142D01*
X59742857Y-198004761D01*
X59838095Y-198052380D01*
X59933333Y-198052380D01*
X60028571Y-198004761D01*
X60076190Y-197957142D01*
X60123809Y-197861904D01*
X60171428Y-197671428D01*
X60171428Y-197433333D01*
X60123809Y-197242857D01*
X60076190Y-197147619D01*
X60028571Y-197100000D01*
X59933333Y-197052380D01*
X59219047Y-197147619D02*
X59171428Y-197100000D01*
X59076190Y-197052380D01*
X58838095Y-197052380D01*
X58742857Y-197100000D01*
X58695238Y-197147619D01*
X58647619Y-197242857D01*
X58647619Y-197338095D01*
X58695238Y-197480952D01*
X59266666Y-198052380D01*
X58647619Y-198052380D01*
X57695238Y-198052380D02*
X58266666Y-198052380D01*
X57980952Y-198052380D02*
X57980952Y-197052380D01*
X58076190Y-197195238D01*
X58171428Y-197290476D01*
X58266666Y-197338095D01*
X70719047Y-198702380D02*
X70719047Y-199416666D01*
X70766666Y-199559523D01*
X70861904Y-199654761D01*
X71004761Y-199702380D01*
X71100000Y-199702380D01*
X69766666Y-199702380D02*
X70242857Y-199702380D01*
X70242857Y-198702380D01*
X68861904Y-199607142D02*
X68909523Y-199654761D01*
X69052380Y-199702380D01*
X69147619Y-199702380D01*
X69290476Y-199654761D01*
X69385714Y-199559523D01*
X69433333Y-199464285D01*
X69480952Y-199273809D01*
X69480952Y-199130952D01*
X69433333Y-198940476D01*
X69385714Y-198845238D01*
X69290476Y-198750000D01*
X69147619Y-198702380D01*
X69052380Y-198702380D01*
X68909523Y-198750000D01*
X68861904Y-198797619D01*
X68147619Y-198702380D02*
X68147619Y-199416666D01*
X68195238Y-199559523D01*
X68290476Y-199654761D01*
X68433333Y-199702380D01*
X68528571Y-199702380D01*
X67195238Y-199702380D02*
X67671428Y-199702380D01*
X67671428Y-198702380D01*
X66290476Y-199607142D02*
X66338095Y-199654761D01*
X66480952Y-199702380D01*
X66576190Y-199702380D01*
X66719047Y-199654761D01*
X66814285Y-199559523D01*
X66861904Y-199464285D01*
X66909523Y-199273809D01*
X66909523Y-199130952D01*
X66861904Y-198940476D01*
X66814285Y-198845238D01*
X66719047Y-198750000D01*
X66576190Y-198702380D01*
X66480952Y-198702380D01*
X66338095Y-198750000D01*
X66290476Y-198797619D01*
X65576190Y-198702380D02*
X65576190Y-199416666D01*
X65623809Y-199559523D01*
X65719047Y-199654761D01*
X65861904Y-199702380D01*
X65957142Y-199702380D01*
X64623809Y-199702380D02*
X65100000Y-199702380D01*
X65100000Y-198702380D01*
X63719047Y-199607142D02*
X63766666Y-199654761D01*
X63909523Y-199702380D01*
X64004761Y-199702380D01*
X64147619Y-199654761D01*
X64242857Y-199559523D01*
X64290476Y-199464285D01*
X64338095Y-199273809D01*
X64338095Y-199130952D01*
X64290476Y-198940476D01*
X64242857Y-198845238D01*
X64147619Y-198750000D01*
X64004761Y-198702380D01*
X63909523Y-198702380D01*
X63766666Y-198750000D01*
X63719047Y-198797619D01*
X63004761Y-198702380D02*
X63004761Y-199416666D01*
X63052380Y-199559523D01*
X63147619Y-199654761D01*
X63290476Y-199702380D01*
X63385714Y-199702380D01*
X62052380Y-199702380D02*
X62528571Y-199702380D01*
X62528571Y-198702380D01*
X61147619Y-199607142D02*
X61195238Y-199654761D01*
X61338095Y-199702380D01*
X61433333Y-199702380D01*
X61576190Y-199654761D01*
X61671428Y-199559523D01*
X61719047Y-199464285D01*
X61766666Y-199273809D01*
X61766666Y-199130952D01*
X61719047Y-198940476D01*
X61671428Y-198845238D01*
X61576190Y-198750000D01*
X61433333Y-198702380D01*
X61338095Y-198702380D01*
X61195238Y-198750000D01*
X61147619Y-198797619D01*
D11*
G36*
X47445762Y-196103295D02*
G01*
X47219275Y-196160725D01*
X47006042Y-196250861D01*
X46809636Y-196371823D01*
X46633628Y-196521729D01*
X46481589Y-196698696D01*
X46357089Y-196900844D01*
X46344249Y-196926541D01*
X46293712Y-197037295D01*
X46256951Y-197138132D01*
X46231999Y-197239067D01*
X46216892Y-197350114D01*
X46209665Y-197481287D01*
X46208257Y-197619538D01*
X46209141Y-197739418D01*
X46211786Y-197829550D01*
X46217274Y-197899255D01*
X46226685Y-197957855D01*
X46241101Y-198014672D01*
X46261488Y-198078692D01*
X46352320Y-198289619D01*
X46476092Y-198485212D01*
X46628345Y-198661404D01*
X46804617Y-198814128D01*
X47000450Y-198939317D01*
X47211382Y-199032904D01*
X47353751Y-199074692D01*
X47476333Y-199096312D01*
X47617661Y-199109844D01*
X47761804Y-199114540D01*
X47892831Y-199109650D01*
X47952036Y-199102835D01*
X48165147Y-199051615D01*
X48374960Y-198965903D01*
X48572932Y-198849928D01*
X48750519Y-198707922D01*
X48751575Y-198706935D01*
X48918861Y-198525473D01*
X49052401Y-198326943D01*
X49151194Y-198114250D01*
X49214239Y-197890302D01*
X49240535Y-197658003D01*
X49237084Y-197586371D01*
X48962601Y-197586371D01*
X48960389Y-197719780D01*
X48948612Y-197838052D01*
X48934995Y-197902846D01*
X48860380Y-198100843D01*
X48753427Y-198285299D01*
X48618836Y-198450554D01*
X48461307Y-198590947D01*
X48285539Y-198700816D01*
X48263640Y-198711586D01*
X48176119Y-198749895D01*
X48086608Y-198783320D01*
X48011196Y-198805990D01*
X47995231Y-198809527D01*
X47927822Y-198822939D01*
X47871304Y-198834585D01*
X47848692Y-198839505D01*
X47799174Y-198844004D01*
X47723233Y-198843264D01*
X47633045Y-198838131D01*
X47540787Y-198829448D01*
X47458637Y-198818062D01*
X47415852Y-198809472D01*
X47245852Y-198752534D01*
X47076986Y-198667240D01*
X46919642Y-198560299D01*
X46784202Y-198438415D01*
X46714407Y-198356457D01*
X46612259Y-198206814D01*
X46539983Y-198065157D01*
X46493839Y-197920154D01*
X46470085Y-197760468D01*
X46464724Y-197600000D01*
X46466764Y-197490885D01*
X46472805Y-197407322D01*
X46484761Y-197335844D01*
X46504547Y-197262980D01*
X46518866Y-197219187D01*
X46609318Y-197010739D01*
X46730477Y-196825634D01*
X46880224Y-196666010D01*
X47056439Y-196534010D01*
X47257005Y-196431773D01*
X47323114Y-196406696D01*
X47434844Y-196378184D01*
X47570736Y-196359903D01*
X47717025Y-196352684D01*
X47859944Y-196357356D01*
X47953669Y-196368657D01*
X48141649Y-196419565D01*
X48321627Y-196505315D01*
X48489038Y-196621826D01*
X48639315Y-196765015D01*
X48767892Y-196930800D01*
X48870203Y-197115098D01*
X48915676Y-197228769D01*
X48939862Y-197327521D01*
X48955631Y-197451170D01*
X48962601Y-197586371D01*
X49237084Y-197586371D01*
X49229080Y-197420259D01*
X49218648Y-197351252D01*
X49160541Y-197118286D01*
X49070059Y-196904919D01*
X48945439Y-196707891D01*
X48784913Y-196523940D01*
X48755132Y-196494885D01*
X48574249Y-196343935D01*
X48383837Y-196229231D01*
X48178478Y-196148158D01*
X47952752Y-196098104D01*
X47924219Y-196094081D01*
X47681934Y-196080453D01*
X47445762Y-196103295D01*
G37*
X47445762Y-196103295D02*
X47219275Y-196160725D01*
X47006042Y-196250861D01*
X46809636Y-196371823D01*
X46633628Y-196521729D01*
X46481589Y-196698696D01*
X46357089Y-196900844D01*
X46344249Y-196926541D01*
X46293712Y-197037295D01*
X46256951Y-197138132D01*
X46231999Y-197239067D01*
X46216892Y-197350114D01*
X46209665Y-197481287D01*
X46208257Y-197619538D01*
X46209141Y-197739418D01*
X46211786Y-197829550D01*
X46217274Y-197899255D01*
X46226685Y-197957855D01*
X46241101Y-198014672D01*
X46261488Y-198078692D01*
X46352320Y-198289619D01*
X46476092Y-198485212D01*
X46628345Y-198661404D01*
X46804617Y-198814128D01*
X47000450Y-198939317D01*
X47211382Y-199032904D01*
X47353751Y-199074692D01*
X47476333Y-199096312D01*
X47617661Y-199109844D01*
X47761804Y-199114540D01*
X47892831Y-199109650D01*
X47952036Y-199102835D01*
X48165147Y-199051615D01*
X48374960Y-198965903D01*
X48572932Y-198849928D01*
X48750519Y-198707922D01*
X48751575Y-198706935D01*
X48918861Y-198525473D01*
X49052401Y-198326943D01*
X49151194Y-198114250D01*
X49214239Y-197890302D01*
X49240535Y-197658003D01*
X49237084Y-197586371D01*
X48962601Y-197586371D01*
X48960389Y-197719780D01*
X48948612Y-197838052D01*
X48934995Y-197902846D01*
X48860380Y-198100843D01*
X48753427Y-198285299D01*
X48618836Y-198450554D01*
X48461307Y-198590947D01*
X48285539Y-198700816D01*
X48263640Y-198711586D01*
X48176119Y-198749895D01*
X48086608Y-198783320D01*
X48011196Y-198805990D01*
X47995231Y-198809527D01*
X47927822Y-198822939D01*
X47871304Y-198834585D01*
X47848692Y-198839505D01*
X47799174Y-198844004D01*
X47723233Y-198843264D01*
X47633045Y-198838131D01*
X47540787Y-198829448D01*
X47458637Y-198818062D01*
X47415852Y-198809472D01*
X47245852Y-198752534D01*
X47076986Y-198667240D01*
X46919642Y-198560299D01*
X46784202Y-198438415D01*
X46714407Y-198356457D01*
X46612259Y-198206814D01*
X46539983Y-198065157D01*
X46493839Y-197920154D01*
X46470085Y-197760468D01*
X46464724Y-197600000D01*
X46466764Y-197490885D01*
X46472805Y-197407322D01*
X46484761Y-197335844D01*
X46504547Y-197262980D01*
X46518866Y-197219187D01*
X46609318Y-197010739D01*
X46730477Y-196825634D01*
X46880224Y-196666010D01*
X47056439Y-196534010D01*
X47257005Y-196431773D01*
X47323114Y-196406696D01*
X47434844Y-196378184D01*
X47570736Y-196359903D01*
X47717025Y-196352684D01*
X47859944Y-196357356D01*
X47953669Y-196368657D01*
X48141649Y-196419565D01*
X48321627Y-196505315D01*
X48489038Y-196621826D01*
X48639315Y-196765015D01*
X48767892Y-196930800D01*
X48870203Y-197115098D01*
X48915676Y-197228769D01*
X48939862Y-197327521D01*
X48955631Y-197451170D01*
X48962601Y-197586371D01*
X49237084Y-197586371D01*
X49229080Y-197420259D01*
X49218648Y-197351252D01*
X49160541Y-197118286D01*
X49070059Y-196904919D01*
X48945439Y-196707891D01*
X48784913Y-196523940D01*
X48755132Y-196494885D01*
X48574249Y-196343935D01*
X48383837Y-196229231D01*
X48178478Y-196148158D01*
X47952752Y-196098104D01*
X47924219Y-196094081D01*
X47681934Y-196080453D01*
X47445762Y-196103295D01*
G36*
X44162551Y-196111587D02*
G01*
X43934872Y-196172319D01*
X43722761Y-196263945D01*
X43652602Y-196303708D01*
X43544068Y-196380779D01*
X43428792Y-196481493D01*
X43317359Y-196595134D01*
X43220353Y-196710982D01*
X43153888Y-196808692D01*
X43054077Y-197014999D01*
X42985850Y-197235241D01*
X42949306Y-197463459D01*
X42944543Y-197693698D01*
X42971660Y-197920000D01*
X43030753Y-198136409D01*
X43121923Y-198336967D01*
X43128497Y-198348509D01*
X43253060Y-198527855D01*
X43408404Y-198691903D01*
X43587535Y-198835367D01*
X43783462Y-198952963D01*
X43989193Y-199039403D01*
X44076363Y-199065024D01*
X44206088Y-199090687D01*
X44351603Y-199107309D01*
X44497718Y-199113928D01*
X44629245Y-199109587D01*
X44682701Y-199103333D01*
X44922036Y-199046757D01*
X45148814Y-198953934D01*
X45358665Y-198826800D01*
X45430318Y-198772122D01*
X45601565Y-198609450D01*
X45741960Y-198426151D01*
X45850979Y-198226239D01*
X45928098Y-198013730D01*
X45972791Y-197792639D01*
X45981016Y-197634606D01*
X45719198Y-197634606D01*
X45694064Y-197845751D01*
X45632679Y-198050690D01*
X45548267Y-198223249D01*
X45485076Y-198313441D01*
X45398995Y-198413314D01*
X45300572Y-198512322D01*
X45200350Y-198599920D01*
X45108876Y-198665561D01*
X45101557Y-198669958D01*
X44903936Y-198764254D01*
X44695157Y-198821992D01*
X44479243Y-198842623D01*
X44260214Y-198825598D01*
X44143253Y-198800863D01*
X43972303Y-198740458D01*
X43802582Y-198651041D01*
X43645288Y-198539843D01*
X43511618Y-198414097D01*
X43472085Y-198367478D01*
X43354299Y-198189023D01*
X43271467Y-197998686D01*
X43222905Y-197800620D01*
X43207932Y-197598975D01*
X43225863Y-197397904D01*
X43276017Y-197201558D01*
X43357710Y-197014089D01*
X43470259Y-196839647D01*
X43612983Y-196682385D01*
X43769918Y-196556741D01*
X43950595Y-196456346D01*
X44147052Y-196388856D01*
X44353455Y-196354622D01*
X44563972Y-196353993D01*
X44772769Y-196387319D01*
X44974013Y-196454950D01*
X45030339Y-196481134D01*
X45174147Y-196570458D01*
X45313615Y-196690242D01*
X45441458Y-196831978D01*
X45550390Y-196987160D01*
X45633123Y-197147282D01*
X45658456Y-197214411D01*
X45707517Y-197422433D01*
X45719198Y-197634606D01*
X45981016Y-197634606D01*
X45984536Y-197566982D01*
X45962808Y-197340772D01*
X45907082Y-197118025D01*
X45816833Y-196902756D01*
X45699584Y-196710151D01*
X45571384Y-196557078D01*
X45417123Y-196416554D01*
X45245551Y-196294696D01*
X45065418Y-196197626D01*
X44885476Y-196131460D01*
X44863914Y-196125788D01*
X44634579Y-196087219D01*
X44398289Y-196082853D01*
X44162551Y-196111587D01*
G37*
X44162551Y-196111587D02*
X43934872Y-196172319D01*
X43722761Y-196263945D01*
X43652602Y-196303708D01*
X43544068Y-196380779D01*
X43428792Y-196481493D01*
X43317359Y-196595134D01*
X43220353Y-196710982D01*
X43153888Y-196808692D01*
X43054077Y-197014999D01*
X42985850Y-197235241D01*
X42949306Y-197463459D01*
X42944543Y-197693698D01*
X42971660Y-197920000D01*
X43030753Y-198136409D01*
X43121923Y-198336967D01*
X43128497Y-198348509D01*
X43253060Y-198527855D01*
X43408404Y-198691903D01*
X43587535Y-198835367D01*
X43783462Y-198952963D01*
X43989193Y-199039403D01*
X44076363Y-199065024D01*
X44206088Y-199090687D01*
X44351603Y-199107309D01*
X44497718Y-199113928D01*
X44629245Y-199109587D01*
X44682701Y-199103333D01*
X44922036Y-199046757D01*
X45148814Y-198953934D01*
X45358665Y-198826800D01*
X45430318Y-198772122D01*
X45601565Y-198609450D01*
X45741960Y-198426151D01*
X45850979Y-198226239D01*
X45928098Y-198013730D01*
X45972791Y-197792639D01*
X45981016Y-197634606D01*
X45719198Y-197634606D01*
X45694064Y-197845751D01*
X45632679Y-198050690D01*
X45548267Y-198223249D01*
X45485076Y-198313441D01*
X45398995Y-198413314D01*
X45300572Y-198512322D01*
X45200350Y-198599920D01*
X45108876Y-198665561D01*
X45101557Y-198669958D01*
X44903936Y-198764254D01*
X44695157Y-198821992D01*
X44479243Y-198842623D01*
X44260214Y-198825598D01*
X44143253Y-198800863D01*
X43972303Y-198740458D01*
X43802582Y-198651041D01*
X43645288Y-198539843D01*
X43511618Y-198414097D01*
X43472085Y-198367478D01*
X43354299Y-198189023D01*
X43271467Y-197998686D01*
X43222905Y-197800620D01*
X43207932Y-197598975D01*
X43225863Y-197397904D01*
X43276017Y-197201558D01*
X43357710Y-197014089D01*
X43470259Y-196839647D01*
X43612983Y-196682385D01*
X43769918Y-196556741D01*
X43950595Y-196456346D01*
X44147052Y-196388856D01*
X44353455Y-196354622D01*
X44563972Y-196353993D01*
X44772769Y-196387319D01*
X44974013Y-196454950D01*
X45030339Y-196481134D01*
X45174147Y-196570458D01*
X45313615Y-196690242D01*
X45441458Y-196831978D01*
X45550390Y-196987160D01*
X45633123Y-197147282D01*
X45658456Y-197214411D01*
X45707517Y-197422433D01*
X45719198Y-197634606D01*
X45981016Y-197634606D01*
X45984536Y-197566982D01*
X45962808Y-197340772D01*
X45907082Y-197118025D01*
X45816833Y-196902756D01*
X45699584Y-196710151D01*
X45571384Y-196557078D01*
X45417123Y-196416554D01*
X45245551Y-196294696D01*
X45065418Y-196197626D01*
X44885476Y-196131460D01*
X44863914Y-196125788D01*
X44634579Y-196087219D01*
X44398289Y-196082853D01*
X44162551Y-196111587D01*
G36*
X47985462Y-197152643D02*
G01*
X47907960Y-197183771D01*
X47834173Y-197230000D01*
X47777964Y-197281844D01*
X47761191Y-197306135D01*
X47754405Y-197330461D01*
X47768257Y-197352581D01*
X47809064Y-197380299D01*
X47831679Y-197393211D01*
X47921809Y-197443585D01*
X47988507Y-197385023D01*
X48060737Y-197338519D01*
X48132889Y-197329439D01*
X48208372Y-197354847D01*
X48262338Y-197399575D01*
X48294410Y-197468778D01*
X48305949Y-197566390D01*
X48304160Y-197631687D01*
X48297588Y-197704710D01*
X48285977Y-197752001D01*
X48264231Y-197786901D01*
X48233179Y-197817499D01*
X48157933Y-197864544D01*
X48081404Y-197872549D01*
X48003904Y-197841518D01*
X47967775Y-197813928D01*
X47899883Y-197754317D01*
X47820557Y-197794786D01*
X47773096Y-197822496D01*
X47744755Y-197845796D01*
X47741231Y-197852736D01*
X47754834Y-197874078D01*
X47790081Y-197911448D01*
X47827998Y-197946592D01*
X47941914Y-198023137D01*
X48065441Y-198062801D01*
X48194244Y-198064942D01*
X48323988Y-198028916D01*
X48338695Y-198022334D01*
X48445027Y-197954034D01*
X48520464Y-197862318D01*
X48565242Y-197746736D01*
X48579597Y-197606835D01*
X48578269Y-197564501D01*
X48568911Y-197474717D01*
X48549251Y-197404936D01*
X48513931Y-197336398D01*
X48512411Y-197333898D01*
X48433280Y-197239869D01*
X48330981Y-197174047D01*
X48211332Y-197138433D01*
X48080151Y-197135030D01*
X47985462Y-197152643D01*
G37*
X47985462Y-197152643D02*
X47907960Y-197183771D01*
X47834173Y-197230000D01*
X47777964Y-197281844D01*
X47761191Y-197306135D01*
X47754405Y-197330461D01*
X47768257Y-197352581D01*
X47809064Y-197380299D01*
X47831679Y-197393211D01*
X47921809Y-197443585D01*
X47988507Y-197385023D01*
X48060737Y-197338519D01*
X48132889Y-197329439D01*
X48208372Y-197354847D01*
X48262338Y-197399575D01*
X48294410Y-197468778D01*
X48305949Y-197566390D01*
X48304160Y-197631687D01*
X48297588Y-197704710D01*
X48285977Y-197752001D01*
X48264231Y-197786901D01*
X48233179Y-197817499D01*
X48157933Y-197864544D01*
X48081404Y-197872549D01*
X48003904Y-197841518D01*
X47967775Y-197813928D01*
X47899883Y-197754317D01*
X47820557Y-197794786D01*
X47773096Y-197822496D01*
X47744755Y-197845796D01*
X47741231Y-197852736D01*
X47754834Y-197874078D01*
X47790081Y-197911448D01*
X47827998Y-197946592D01*
X47941914Y-198023137D01*
X48065441Y-198062801D01*
X48194244Y-198064942D01*
X48323988Y-198028916D01*
X48338695Y-198022334D01*
X48445027Y-197954034D01*
X48520464Y-197862318D01*
X48565242Y-197746736D01*
X48579597Y-197606835D01*
X48578269Y-197564501D01*
X48568911Y-197474717D01*
X48549251Y-197404936D01*
X48513931Y-197336398D01*
X48512411Y-197333898D01*
X48433280Y-197239869D01*
X48330981Y-197174047D01*
X48211332Y-197138433D01*
X48080151Y-197135030D01*
X47985462Y-197152643D01*
G36*
X47110240Y-197151947D02*
G01*
X47008378Y-197191970D01*
X46925953Y-197250711D01*
X46879557Y-197310874D01*
X46875227Y-197334377D01*
X46893686Y-197358572D01*
X46940859Y-197390489D01*
X46952388Y-197397323D01*
X47006758Y-197427060D01*
X47038765Y-197436991D01*
X47058361Y-197429280D01*
X47064922Y-197421783D01*
X47113678Y-197375036D01*
X47173913Y-197339854D01*
X47226890Y-197326461D01*
X47308245Y-197343534D01*
X47370310Y-197392865D01*
X47410986Y-197471618D01*
X47428177Y-197576958D01*
X47428616Y-197599038D01*
X47415565Y-197704520D01*
X47379697Y-197787197D01*
X47325937Y-197843996D01*
X47259213Y-197871845D01*
X47184451Y-197867673D01*
X47106578Y-197828406D01*
X47086663Y-197812275D01*
X47016888Y-197751013D01*
X46939444Y-197785935D01*
X46892090Y-197812301D01*
X46864706Y-197837249D01*
X46862000Y-197844709D01*
X46877365Y-197876272D01*
X46917095Y-197919399D01*
X46971639Y-197966241D01*
X47031448Y-198008947D01*
X47086973Y-198039670D01*
X47109070Y-198047792D01*
X47248419Y-198068493D01*
X47380352Y-198050937D01*
X47463723Y-198018395D01*
X47567214Y-197946141D01*
X47642881Y-197848191D01*
X47688536Y-197728345D01*
X47702154Y-197604694D01*
X47685124Y-197473486D01*
X47636905Y-197354228D01*
X47561800Y-197254078D01*
X47464117Y-197180196D01*
X47439475Y-197167928D01*
X47335087Y-197137553D01*
X47222242Y-197133017D01*
X47110240Y-197151947D01*
G37*
X47110240Y-197151947D02*
X47008378Y-197191970D01*
X46925953Y-197250711D01*
X46879557Y-197310874D01*
X46875227Y-197334377D01*
X46893686Y-197358572D01*
X46940859Y-197390489D01*
X46952388Y-197397323D01*
X47006758Y-197427060D01*
X47038765Y-197436991D01*
X47058361Y-197429280D01*
X47064922Y-197421783D01*
X47113678Y-197375036D01*
X47173913Y-197339854D01*
X47226890Y-197326461D01*
X47308245Y-197343534D01*
X47370310Y-197392865D01*
X47410986Y-197471618D01*
X47428177Y-197576958D01*
X47428616Y-197599038D01*
X47415565Y-197704520D01*
X47379697Y-197787197D01*
X47325937Y-197843996D01*
X47259213Y-197871845D01*
X47184451Y-197867673D01*
X47106578Y-197828406D01*
X47086663Y-197812275D01*
X47016888Y-197751013D01*
X46939444Y-197785935D01*
X46892090Y-197812301D01*
X46864706Y-197837249D01*
X46862000Y-197844709D01*
X46877365Y-197876272D01*
X46917095Y-197919399D01*
X46971639Y-197966241D01*
X47031448Y-198008947D01*
X47086973Y-198039670D01*
X47109070Y-198047792D01*
X47248419Y-198068493D01*
X47380352Y-198050937D01*
X47463723Y-198018395D01*
X47567214Y-197946141D01*
X47642881Y-197848191D01*
X47688536Y-197728345D01*
X47702154Y-197604694D01*
X47685124Y-197473486D01*
X47636905Y-197354228D01*
X47561800Y-197254078D01*
X47464117Y-197180196D01*
X47439475Y-197167928D01*
X47335087Y-197137553D01*
X47222242Y-197133017D01*
X47110240Y-197151947D01*
G36*
X44381189Y-196733741D02*
G01*
X44316567Y-196741437D01*
X44258500Y-196759197D01*
X44199562Y-196785884D01*
X44084604Y-196861996D01*
X43992347Y-196966970D01*
X43922002Y-197102151D01*
X43872779Y-197268883D01*
X43854570Y-197373464D01*
X43838268Y-197527178D01*
X43836482Y-197663482D01*
X43849484Y-197801356D01*
X43861779Y-197877732D01*
X43906600Y-198051964D01*
X43973289Y-198198191D01*
X44060509Y-198314342D01*
X44166924Y-198398346D01*
X44212792Y-198421706D01*
X44305941Y-198450276D01*
X44418276Y-198466619D01*
X44531329Y-198468967D01*
X44609283Y-198459705D01*
X44684600Y-198439781D01*
X44746195Y-198411095D01*
X44809094Y-198365485D01*
X44852785Y-198327434D01*
X44942941Y-198222255D01*
X45010807Y-198089080D01*
X45021390Y-198051694D01*
X44615077Y-198051694D01*
X44598366Y-198098731D01*
X44554685Y-198130658D01*
X44493708Y-198145931D01*
X44425111Y-198143004D01*
X44358571Y-198120334D01*
X44325245Y-198097962D01*
X44283099Y-198048793D01*
X44245795Y-197982909D01*
X44235151Y-197956308D01*
X44215890Y-197877223D01*
X44201250Y-197773359D01*
X44192197Y-197658843D01*
X44189697Y-197547802D01*
X44194716Y-197454362D01*
X44198892Y-197425889D01*
X44215027Y-197339702D01*
X44415052Y-197683738D01*
X44475656Y-197789104D01*
X44528881Y-197883798D01*
X44571760Y-197962368D01*
X44601331Y-198019360D01*
X44614629Y-198049321D01*
X44615077Y-198051694D01*
X45021390Y-198051694D01*
X45056836Y-197926483D01*
X45081480Y-197733041D01*
X45084805Y-197634984D01*
X44738146Y-197634984D01*
X44736185Y-197695716D01*
X44734167Y-197741666D01*
X44731418Y-197774212D01*
X44725578Y-197790645D01*
X44714288Y-197788254D01*
X44695189Y-197764330D01*
X44665921Y-197716164D01*
X44624124Y-197641045D01*
X44567438Y-197536263D01*
X44518921Y-197446196D01*
X44459859Y-197335619D01*
X44417835Y-197253656D01*
X44390655Y-197194906D01*
X44376125Y-197153967D01*
X44372053Y-197125434D01*
X44376246Y-197103908D01*
X44378145Y-197099389D01*
X44414080Y-197063197D01*
X44472173Y-197052645D01*
X44544564Y-197068352D01*
X44578683Y-197083617D01*
X44635785Y-197134136D01*
X44681276Y-197218397D01*
X44714163Y-197332535D01*
X44733451Y-197472686D01*
X44738146Y-197634984D01*
X45084805Y-197634984D01*
X45086238Y-197592731D01*
X45075312Y-197379678D01*
X45040721Y-197197138D01*
X44982214Y-197044339D01*
X44899538Y-196920506D01*
X44851492Y-196871396D01*
X44766009Y-196804584D01*
X44679519Y-196762242D01*
X44579434Y-196739819D01*
X44468539Y-196732925D01*
X44381189Y-196733741D01*
G37*
X44381189Y-196733741D02*
X44316567Y-196741437D01*
X44258500Y-196759197D01*
X44199562Y-196785884D01*
X44084604Y-196861996D01*
X43992347Y-196966970D01*
X43922002Y-197102151D01*
X43872779Y-197268883D01*
X43854570Y-197373464D01*
X43838268Y-197527178D01*
X43836482Y-197663482D01*
X43849484Y-197801356D01*
X43861779Y-197877732D01*
X43906600Y-198051964D01*
X43973289Y-198198191D01*
X44060509Y-198314342D01*
X44166924Y-198398346D01*
X44212792Y-198421706D01*
X44305941Y-198450276D01*
X44418276Y-198466619D01*
X44531329Y-198468967D01*
X44609283Y-198459705D01*
X44684600Y-198439781D01*
X44746195Y-198411095D01*
X44809094Y-198365485D01*
X44852785Y-198327434D01*
X44942941Y-198222255D01*
X45010807Y-198089080D01*
X45021390Y-198051694D01*
X44615077Y-198051694D01*
X44598366Y-198098731D01*
X44554685Y-198130658D01*
X44493708Y-198145931D01*
X44425111Y-198143004D01*
X44358571Y-198120334D01*
X44325245Y-198097962D01*
X44283099Y-198048793D01*
X44245795Y-197982909D01*
X44235151Y-197956308D01*
X44215890Y-197877223D01*
X44201250Y-197773359D01*
X44192197Y-197658843D01*
X44189697Y-197547802D01*
X44194716Y-197454362D01*
X44198892Y-197425889D01*
X44215027Y-197339702D01*
X44415052Y-197683738D01*
X44475656Y-197789104D01*
X44528881Y-197883798D01*
X44571760Y-197962368D01*
X44601331Y-198019360D01*
X44614629Y-198049321D01*
X44615077Y-198051694D01*
X45021390Y-198051694D01*
X45056836Y-197926483D01*
X45081480Y-197733041D01*
X45084805Y-197634984D01*
X44738146Y-197634984D01*
X44736185Y-197695716D01*
X44734167Y-197741666D01*
X44731418Y-197774212D01*
X44725578Y-197790645D01*
X44714288Y-197788254D01*
X44695189Y-197764330D01*
X44665921Y-197716164D01*
X44624124Y-197641045D01*
X44567438Y-197536263D01*
X44518921Y-197446196D01*
X44459859Y-197335619D01*
X44417835Y-197253656D01*
X44390655Y-197194906D01*
X44376125Y-197153967D01*
X44372053Y-197125434D01*
X44376246Y-197103908D01*
X44378145Y-197099389D01*
X44414080Y-197063197D01*
X44472173Y-197052645D01*
X44544564Y-197068352D01*
X44578683Y-197083617D01*
X44635785Y-197134136D01*
X44681276Y-197218397D01*
X44714163Y-197332535D01*
X44733451Y-197472686D01*
X44738146Y-197634984D01*
X45084805Y-197634984D01*
X45086238Y-197592731D01*
X45075312Y-197379678D01*
X45040721Y-197197138D01*
X44982214Y-197044339D01*
X44899538Y-196920506D01*
X44851492Y-196871396D01*
X44766009Y-196804584D01*
X44679519Y-196762242D01*
X44579434Y-196739819D01*
X44468539Y-196732925D01*
X44381189Y-196733741D01*
M02*
