G04 #@! TF.GenerationSoftware,KiCad,Pcbnew,6.0.5-a6ca702e91~116~ubuntu20.04.1*
G04 #@! TF.CreationDate,2022-06-21T20:30:45-04:00*
G04 #@! TF.ProjectId,joystick_panel,6a6f7973-7469-4636-9b5f-70616e656c2e,rev?*
G04 #@! TF.SameCoordinates,Original*
G04 #@! TF.FileFunction,Other,Comment*
%FSLAX46Y46*%
G04 Gerber Fmt 4.6, Leading zero omitted, Abs format (unit mm)*
G04 Created by KiCad (PCBNEW 6.0.5-a6ca702e91~116~ubuntu20.04.1) date 2022-06-21 20:30:45*
%MOMM*%
%LPD*%
G01*
G04 APERTURE LIST*
%ADD10C,0.120000*%
%ADD11C,0.150000*%
G04 APERTURE END LIST*
D10*
G04 #@! TO.C,H14*
X113100000Y-7600000D02*
X110300000Y-7600000D01*
X113100000Y-13600000D02*
X110300000Y-13600000D01*
X113100000Y-207600000D02*
X110300000Y-207600000D01*
X113100000Y-201600000D02*
X110300000Y-201600000D01*
X113100000Y-207600000D02*
G75*
G03*
X113100000Y-201600000I0J3000000D01*
G01*
X110300000Y-201600000D02*
G75*
G03*
X110300000Y-207600000I0J-3000000D01*
G01*
X113100000Y-13600000D02*
G75*
G03*
X113100000Y-7600000I0J3000000D01*
G01*
X110300000Y-7600000D02*
G75*
G03*
X110300000Y-13600000I0J-3000000D01*
G01*
D11*
G04 #@! TO.C,H1*
X88100000Y-182600000D02*
G75*
G03*
X88100000Y-182600000I-9500000J0D01*
G01*
D10*
G04 #@! TO.C,H11*
X19100000Y-201600000D02*
X21900000Y-201600000D01*
X19100000Y-13600000D02*
X21900000Y-13600000D01*
X19100000Y-207600000D02*
X21900000Y-207600000D01*
X19100000Y-7600000D02*
X21900000Y-7600000D01*
X19100000Y-201600000D02*
G75*
G03*
X19100000Y-207600000I0J-3000000D01*
G01*
X21900000Y-207600000D02*
G75*
G03*
X21900000Y-201600000I0J3000000D01*
G01*
X19100000Y-7600000D02*
G75*
G03*
X19100000Y-13600000I0J-3000000D01*
G01*
X21900000Y-13600000D02*
G75*
G03*
X21900000Y-7600000I0J3000000D01*
G01*
D11*
G04 #@! TO.C,H2*
X38100000Y-182600000D02*
G75*
G03*
X38100000Y-182600000I-9500000J0D01*
G01*
G04 #@! TO.C,H3*
X113100000Y-182600000D02*
G75*
G03*
X113100000Y-182600000I-9500000J0D01*
G01*
G04 #@! TO.C,H4*
X63100000Y-182600000D02*
G75*
G03*
X63100000Y-182600000I-9500000J0D01*
G01*
G04 #@! TO.C,H5*
X47100000Y-102600000D02*
G75*
G03*
X47100000Y-102600000I-6000000J0D01*
G01*
G04 #@! TO.C,H6*
X97100000Y-102600000D02*
G75*
G03*
X97100000Y-102600000I-6000000J0D01*
G01*
G04 #@! TO.C,H7*
X47100000Y-147600000D02*
G75*
G03*
X47100000Y-147600000I-6000000J0D01*
G01*
G04 #@! TO.C,H8*
X97100000Y-147600000D02*
G75*
G03*
X97100000Y-147600000I-6000000J0D01*
G01*
G04 #@! TO.C,H9*
X52350000Y-41350000D02*
G75*
G03*
X52350000Y-41350000I-2500000J0D01*
G01*
G04 #@! TO.C,H10*
X84850000Y-41350000D02*
G75*
G03*
X84850000Y-41350000I-2500000J0D01*
G01*
G04 #@! TO.C,H12*
X52350000Y-73850000D02*
G75*
G03*
X52350000Y-73850000I-2500000J0D01*
G01*
G04 #@! TO.C,H13*
X84850000Y-73850000D02*
G75*
G03*
X84850000Y-73850000I-2500000J0D01*
G01*
G04 #@! TO.C,H15*
X31800000Y-88600000D02*
G75*
G03*
X31800000Y-88600000I-3200000J0D01*
G01*
G04 #@! TO.C,H16*
X106800000Y-88600000D02*
G75*
G03*
X106800000Y-88600000I-3200000J0D01*
G01*
G04 #@! TD*
M02*
