M48
; DRILL file {KiCad 5.1.10-88a1d61d58~90~ubuntu20.04.1} date Sat Oct  2 19:54:10 2021
; FORMAT={-:-/ absolute / inch / decimal}
; #@! TF.CreationDate,2021-10-02T19:54:10-04:00
; #@! TF.GenerationSoftware,Kicad,Pcbnew,5.1.10-88a1d61d58~90~ubuntu20.04.1
; #@! TF.FileFunction,Plated,1,2,NPTH
FMAT,2
INCH
T1C0.0984
T2C0.1260
T3C0.2756
T4C0.3937
%
G90
G05
T1
X1.9626Y-1.628
X1.9626Y-2.9075
X3.2421Y-1.628
X3.2421Y-2.9075
T3
X1.6181Y-4.0394
X1.6181Y-5.811
X3.5866Y-4.0394
X3.5866Y-5.811
T4
X1.126Y-7.189
X2.1102Y-7.189
X3.0945Y-7.189
X4.0787Y-7.189
T2
G00X0.752Y-0.4173
M15
G01X0.8622Y-0.4173
M16
G05
G00X0.752Y-8.0551
M15
G01X0.8622Y-8.0551
M16
G05
G00X4.4528Y-0.4173
M15
G01X4.3425Y-0.4173
M16
G05
G00X4.4528Y-8.0551
M15
G01X4.3425Y-8.0551
M16
G05
T0
M30
