%TF.GenerationSoftware,KiCad,Pcbnew,5.1.12-84ad8e8a86~92~ubuntu20.04.1*%
%TF.CreationDate,2021-11-30T23:55:42-05:00*%
%TF.ProjectId,joystick,6a6f7973-7469-4636-9b2e-6b696361645f,rev?*%
%TF.SameCoordinates,Original*%
%TF.FileFunction,Legend,Top*%
%TF.FilePolarity,Positive*%
%FSLAX46Y46*%
G04 Gerber Fmt 4.6, Leading zero omitted, Abs format (unit mm)*
G04 Created by KiCad (PCBNEW 5.1.12-84ad8e8a86~92~ubuntu20.04.1) date 2021-11-30 23:55:42*
%MOMM*%
%LPD*%
G01*
G04 APERTURE LIST*
%ADD10C,0.120000*%
%ADD11C,0.150000*%
G04 APERTURE END LIST*
D10*
%TO.C,J13*%
X192350000Y-150850000D02*
X191610000Y-151440000D01*
X176600000Y-143500000D02*
X176600000Y-137100000D01*
X176600000Y-137100000D02*
X183000000Y-137100000D01*
X192350000Y-150800000D02*
X192350000Y-150850000D01*
X192350000Y-144600000D02*
X192350000Y-150800000D01*
X189850000Y-152850000D02*
X184000000Y-152850000D01*
X187000000Y-137100000D02*
X192350000Y-137100000D01*
X176600000Y-152850000D02*
X176600000Y-147500000D01*
X180000000Y-152850000D02*
X176600000Y-152850000D01*
X190790000Y-152090000D02*
X189850000Y-152850000D01*
X192350000Y-137100000D02*
X192350000Y-140300000D01*
%TO.C,J11*%
X142350000Y-150850000D02*
X141610000Y-151440000D01*
X126600000Y-143500000D02*
X126600000Y-137100000D01*
X126600000Y-137100000D02*
X133000000Y-137100000D01*
X142350000Y-150800000D02*
X142350000Y-150850000D01*
X142350000Y-144600000D02*
X142350000Y-150800000D01*
X139850000Y-152850000D02*
X134000000Y-152850000D01*
X137000000Y-137100000D02*
X142350000Y-137100000D01*
X126600000Y-152850000D02*
X126600000Y-147500000D01*
X130000000Y-152850000D02*
X126600000Y-152850000D01*
X140790000Y-152090000D02*
X139850000Y-152850000D01*
X142350000Y-137100000D02*
X142350000Y-140300000D01*
%TO.C,J6*%
X167350000Y-150850000D02*
X166610000Y-151440000D01*
X151600000Y-143500000D02*
X151600000Y-137100000D01*
X151600000Y-137100000D02*
X158000000Y-137100000D01*
X167350000Y-150800000D02*
X167350000Y-150850000D01*
X167350000Y-144600000D02*
X167350000Y-150800000D01*
X164850000Y-152850000D02*
X159000000Y-152850000D01*
X162000000Y-137100000D02*
X167350000Y-137100000D01*
X151600000Y-152850000D02*
X151600000Y-147500000D01*
X155000000Y-152850000D02*
X151600000Y-152850000D01*
X165790000Y-152090000D02*
X164850000Y-152850000D01*
X167350000Y-137100000D02*
X167350000Y-140300000D01*
%TO.C,J4*%
X117350000Y-150850000D02*
X116610000Y-151440000D01*
X101600000Y-143500000D02*
X101600000Y-137100000D01*
X101600000Y-137100000D02*
X108000000Y-137100000D01*
X117350000Y-150800000D02*
X117350000Y-150850000D01*
X117350000Y-144600000D02*
X117350000Y-150800000D01*
X114850000Y-152850000D02*
X109000000Y-152850000D01*
X112000000Y-137100000D02*
X117350000Y-137100000D01*
X101600000Y-152850000D02*
X101600000Y-147500000D01*
X105000000Y-152850000D02*
X101600000Y-152850000D01*
X115790000Y-152090000D02*
X114850000Y-152850000D01*
X117350000Y-137100000D02*
X117350000Y-140300000D01*
%TO.C,J13*%
D11*
X183892857Y-135089285D02*
X183892857Y-135625000D01*
X183857142Y-135732142D01*
X183785714Y-135803571D01*
X183678571Y-135839285D01*
X183607142Y-135839285D01*
X184642857Y-135839285D02*
X184214285Y-135839285D01*
X184428571Y-135839285D02*
X184428571Y-135089285D01*
X184357142Y-135196428D01*
X184285714Y-135267857D01*
X184214285Y-135303571D01*
X184892857Y-135089285D02*
X185357142Y-135089285D01*
X185107142Y-135375000D01*
X185214285Y-135375000D01*
X185285714Y-135410714D01*
X185321428Y-135446428D01*
X185357142Y-135517857D01*
X185357142Y-135696428D01*
X185321428Y-135767857D01*
X185285714Y-135803571D01*
X185214285Y-135839285D01*
X185000000Y-135839285D01*
X184928571Y-135803571D01*
X184892857Y-135767857D01*
%TO.C,J11*%
X133892857Y-135089285D02*
X133892857Y-135625000D01*
X133857142Y-135732142D01*
X133785714Y-135803571D01*
X133678571Y-135839285D01*
X133607142Y-135839285D01*
X134642857Y-135839285D02*
X134214285Y-135839285D01*
X134428571Y-135839285D02*
X134428571Y-135089285D01*
X134357142Y-135196428D01*
X134285714Y-135267857D01*
X134214285Y-135303571D01*
X135357142Y-135839285D02*
X134928571Y-135839285D01*
X135142857Y-135839285D02*
X135142857Y-135089285D01*
X135071428Y-135196428D01*
X135000000Y-135267857D01*
X134928571Y-135303571D01*
%TO.C,J6*%
X159250000Y-135089285D02*
X159250000Y-135625000D01*
X159214285Y-135732142D01*
X159142857Y-135803571D01*
X159035714Y-135839285D01*
X158964285Y-135839285D01*
X159928571Y-135089285D02*
X159785714Y-135089285D01*
X159714285Y-135125000D01*
X159678571Y-135160714D01*
X159607142Y-135267857D01*
X159571428Y-135410714D01*
X159571428Y-135696428D01*
X159607142Y-135767857D01*
X159642857Y-135803571D01*
X159714285Y-135839285D01*
X159857142Y-135839285D01*
X159928571Y-135803571D01*
X159964285Y-135767857D01*
X160000000Y-135696428D01*
X160000000Y-135517857D01*
X159964285Y-135446428D01*
X159928571Y-135410714D01*
X159857142Y-135375000D01*
X159714285Y-135375000D01*
X159642857Y-135410714D01*
X159607142Y-135446428D01*
X159571428Y-135517857D01*
%TO.C,J4*%
X109250000Y-135089285D02*
X109250000Y-135625000D01*
X109214285Y-135732142D01*
X109142857Y-135803571D01*
X109035714Y-135839285D01*
X108964285Y-135839285D01*
X109928571Y-135339285D02*
X109928571Y-135839285D01*
X109750000Y-135053571D02*
X109571428Y-135589285D01*
X110035714Y-135589285D01*
%TD*%
M02*
