M48
; DRILL file {KiCad 6.0.5-a6ca702e91~116~ubuntu20.04.1} date Tue Jun 21 20:26:15 2022
; FORMAT={-:-/ absolute / metric / decimal}
; #@! TF.CreationDate,2022-06-21T20:26:15-04:00
; #@! TF.GenerationSoftware,Kicad,Pcbnew,6.0.5-a6ca702e91~116~ubuntu20.04.1
; #@! TF.FileFunction,MixedPlating,1,2
FMAT,2
METRIC
; #@! TA.AperFunction,Plated,PTH,ViaDrill
T1C0.400
; #@! TA.AperFunction,Plated,PTH,ComponentDrill
T2C0.800
; #@! TA.AperFunction,Plated,PTH,ComponentDrill
T3C1.016
; #@! TA.AperFunction,Plated,PTH,ComponentDrill
T4C1.100
; #@! TA.AperFunction,Plated,PTH,ComponentDrill
T5C1.190
; #@! TA.AperFunction,Plated,PTH,ComponentDrill
T6C1.200
; #@! TA.AperFunction,Plated,PTH,ComponentDrill
T7C2.700
; #@! TA.AperFunction,NonPlated,NPTH,ComponentDrill
T8C3.200
%
G90
G05
T1
X122.997Y-103.274
T2
X103.82Y-133.5
X105.09Y-100.48
X105.09Y-103.02
X105.09Y-105.56
X108.9Y-85.24
X108.9Y-95.4
X108.9Y-113.18
X108.9Y-123.34
X111.44Y-100.48
X111.44Y-108.1
X113.98Y-85.24
X113.98Y-95.4
X113.98Y-100.48
X113.98Y-108.1
X113.98Y-113.18
X113.98Y-123.34
X113.98Y-133.5
X116.52Y-100.48
X116.52Y-108.1
X119.06Y-92.86
X119.06Y-95.36
X119.06Y-100.48
X119.06Y-108.1
X119.06Y-113.22
X119.06Y-115.72
X121.6Y-100.48
X121.6Y-108.1
X124.14Y-85.24
X124.14Y-95.4
X124.14Y-100.48
X124.14Y-108.1
X124.14Y-113.18
X124.14Y-123.34
X126.68Y-100.48
X126.68Y-108.1
X129.22Y-70.0
X129.22Y-85.24
X129.22Y-95.4
X129.22Y-113.18
X129.22Y-123.34
X129.22Y-133.5
X129.26Y-80.16
X131.72Y-70.0
X131.76Y-80.16
X134.3Y-85.24
X134.3Y-95.4
X139.38Y-70.0
X139.38Y-80.16
X139.38Y-85.24
X139.38Y-95.4
X139.38Y-133.5
X144.46Y-70.0
X144.46Y-80.16
X147.0Y-85.24
X147.0Y-95.4
X149.54Y-70.0
X149.54Y-80.16
X152.08Y-85.24
X152.08Y-95.4
X154.62Y-70.0
X154.62Y-80.16
X154.62Y-133.5
X164.78Y-85.24
X164.78Y-95.4
X164.78Y-113.18
X164.78Y-123.34
X164.78Y-133.5
X167.32Y-100.48
X167.32Y-108.1
X169.86Y-85.24
X169.86Y-95.4
X169.86Y-100.48
X169.86Y-108.1
X169.86Y-113.18
X169.86Y-123.34
X172.4Y-100.48
X172.4Y-108.1
X174.94Y-92.86
X174.94Y-95.36
X174.94Y-100.48
X174.94Y-108.1
X174.94Y-113.18
X174.94Y-115.68
X177.48Y-100.48
X177.48Y-108.1
X180.02Y-85.24
X180.02Y-95.4
X180.02Y-100.48
X180.02Y-108.1
X180.02Y-113.18
X180.02Y-123.34
X180.02Y-133.5
X182.56Y-100.48
X182.56Y-108.1
X185.1Y-85.24
X185.1Y-95.4
X185.1Y-113.18
X185.1Y-123.34
X188.91Y-100.48
X188.91Y-103.02
X188.91Y-105.56
X190.18Y-133.5
T3
X108.9Y-64.92
X108.9Y-67.46
X108.9Y-70.0
X108.9Y-72.54
X108.9Y-75.08
X111.44Y-64.92
X111.44Y-67.46
X111.44Y-70.0
X111.44Y-72.54
X111.44Y-75.08
T4
X119.06Y-70.0
X119.06Y-80.16
X124.14Y-70.0
X124.14Y-80.16
T5
X141.92Y-62.38
X144.46Y-62.38
X147.0Y-62.38
X149.54Y-62.38
X152.08Y-62.38
X154.62Y-62.38
T6
X139.38Y-108.1
X139.38Y-110.64
X139.38Y-113.18
X139.38Y-118.26
X139.38Y-120.8
X154.62Y-108.1
X154.62Y-110.64
X154.62Y-115.72
X154.62Y-118.26
X154.62Y-120.8
T7
X103.1Y-145.5
X107.0Y-151.4
X110.0Y-138.6
X114.24Y-149.74
X115.9Y-142.5
X128.1Y-145.5
X132.0Y-151.4
X135.0Y-138.6
X139.24Y-149.74
X140.9Y-142.5
X153.1Y-145.5
X157.0Y-151.4
X160.0Y-138.6
X164.24Y-149.74
X165.9Y-142.5
X178.1Y-145.5
X182.0Y-151.4
X185.0Y-138.6
X189.24Y-149.74
X190.9Y-142.5
T8
X109.5Y-51.0
X184.5Y-51.0
T0
M30
