G04 #@! TF.GenerationSoftware,KiCad,Pcbnew,6.0.5-a6ca702e91~116~ubuntu20.04.1*
G04 #@! TF.CreationDate,2022-06-21T20:26:15-04:00*
G04 #@! TF.ProjectId,joystick,6a6f7973-7469-4636-9b2e-6b696361645f,rev?*
G04 #@! TF.SameCoordinates,Original*
G04 #@! TF.FileFunction,Soldermask,Bot*
G04 #@! TF.FilePolarity,Negative*
%FSLAX46Y46*%
G04 Gerber Fmt 4.6, Leading zero omitted, Abs format (unit mm)*
G04 Created by KiCad (PCBNEW 6.0.5-a6ca702e91~116~ubuntu20.04.1) date 2022-06-21 20:26:15*
%MOMM*%
%LPD*%
G01*
G04 APERTURE LIST*
G04 Aperture macros list*
%AMRoundRect*
0 Rectangle with rounded corners*
0 $1 Rounding radius*
0 $2 $3 $4 $5 $6 $7 $8 $9 X,Y pos of 4 corners*
0 Add a 4 corners polygon primitive as box body*
4,1,4,$2,$3,$4,$5,$6,$7,$8,$9,$2,$3,0*
0 Add four circle primitives for the rounded corners*
1,1,$1+$1,$2,$3*
1,1,$1+$1,$4,$5*
1,1,$1+$1,$6,$7*
1,1,$1+$1,$8,$9*
0 Add four rect primitives between the rounded corners*
20,1,$1+$1,$2,$3,$4,$5,0*
20,1,$1+$1,$4,$5,$6,$7,0*
20,1,$1+$1,$6,$7,$8,$9,0*
20,1,$1+$1,$8,$9,$2,$3,0*%
G04 Aperture macros list end*
%ADD10C,4.500001*%
%ADD11R,4.500001X4.500001*%
%ADD12C,4.500000*%
%ADD13C,3.200000*%
%ADD14R,1.600000X1.600000*%
%ADD15C,1.600000*%
%ADD16R,2.200000X2.200000*%
%ADD17O,2.200000X2.200000*%
%ADD18R,1.727200X1.727200*%
%ADD19O,1.727200X1.727200*%
%ADD20RoundRect,0.249999X-0.620001X-0.845001X0.620001X-0.845001X0.620001X0.845001X-0.620001X0.845001X0*%
%ADD21O,1.740000X2.190000*%
%ADD22O,1.600000X1.600000*%
%ADD23R,1.600000X2.400000*%
%ADD24O,1.600000X2.400000*%
%ADD25RoundRect,0.249999X0.850001X-0.620001X0.850001X0.620001X-0.850001X0.620001X-0.850001X-0.620001X0*%
%ADD26O,2.200000X1.740000*%
%ADD27RoundRect,0.249999X-0.850001X0.620001X-0.850001X-0.620001X0.850001X-0.620001X0.850001X0.620001X0*%
%ADD28C,1.440000*%
%ADD29C,2.000000*%
G04 APERTURE END LIST*
D10*
G04 #@! TO.C,J4*
X110000000Y-138600000D03*
X115900000Y-142500000D03*
D11*
X114240000Y-149740000D03*
D12*
X103100000Y-145500000D03*
X107000000Y-151400000D03*
G04 #@! TD*
D10*
G04 #@! TO.C,J6*
X160000000Y-138600000D03*
X165900000Y-142500000D03*
D11*
X164240000Y-149740000D03*
D12*
X153100000Y-145500000D03*
X157000000Y-151400000D03*
G04 #@! TD*
D10*
G04 #@! TO.C,J11*
X135000000Y-138600000D03*
X140900000Y-142500000D03*
D11*
X139240000Y-149740000D03*
D12*
X128100000Y-145500000D03*
X132000000Y-151400000D03*
G04 #@! TD*
D10*
G04 #@! TO.C,J13*
X185000000Y-138600000D03*
X190900000Y-142500000D03*
D11*
X189240000Y-149740000D03*
D12*
X178100000Y-145500000D03*
X182000000Y-151400000D03*
G04 #@! TD*
D13*
G04 #@! TO.C,H1*
X109500000Y-51000000D03*
G04 #@! TD*
G04 #@! TO.C,H2*
X184500000Y-51000000D03*
G04 #@! TD*
D14*
G04 #@! TO.C,C2*
X129220000Y-70000000D03*
D15*
X131720000Y-70000000D03*
G04 #@! TD*
D14*
G04 #@! TO.C,C1*
X131760000Y-80160000D03*
D15*
X129260000Y-80160000D03*
G04 #@! TD*
G04 #@! TO.C,C4*
X119060000Y-115720000D03*
X119060000Y-113220000D03*
G04 #@! TD*
G04 #@! TO.C,C3*
X119060000Y-95360000D03*
X119060000Y-92860000D03*
G04 #@! TD*
D16*
G04 #@! TO.C,D2*
X119060000Y-70000000D03*
D17*
X119060000Y-80160000D03*
G04 #@! TD*
D16*
G04 #@! TO.C,D1*
X124140000Y-80160000D03*
D17*
X124140000Y-70000000D03*
G04 #@! TD*
D18*
G04 #@! TO.C,J1*
X108900000Y-75080000D03*
D19*
X111440000Y-75080000D03*
X108900000Y-72540000D03*
X111440000Y-72540000D03*
X108900000Y-70000000D03*
X111440000Y-70000000D03*
X108900000Y-67460000D03*
X111440000Y-67460000D03*
X108900000Y-64920000D03*
X111440000Y-64920000D03*
G04 #@! TD*
D20*
G04 #@! TO.C,J5*
X141920000Y-62380000D03*
D21*
X144460000Y-62380000D03*
X147000000Y-62380000D03*
X149540000Y-62380000D03*
X152080000Y-62380000D03*
X154620000Y-62380000D03*
G04 #@! TD*
D15*
G04 #@! TO.C,R3*
X113980000Y-95400000D03*
D22*
X113980000Y-85240000D03*
G04 #@! TD*
D15*
G04 #@! TO.C,R6*
X108900000Y-95400000D03*
D22*
X108900000Y-85240000D03*
G04 #@! TD*
D15*
G04 #@! TO.C,R7*
X124140000Y-95400000D03*
D22*
X124140000Y-85240000D03*
G04 #@! TD*
D15*
G04 #@! TO.C,R8*
X129220000Y-95400000D03*
D22*
X129220000Y-85240000D03*
G04 #@! TD*
D15*
G04 #@! TO.C,R9*
X124140000Y-113180000D03*
D22*
X124140000Y-123340000D03*
G04 #@! TD*
D15*
G04 #@! TO.C,R10*
X129220000Y-113180000D03*
D22*
X129220000Y-123340000D03*
G04 #@! TD*
D15*
G04 #@! TO.C,R11*
X103820000Y-133500000D03*
D22*
X113980000Y-133500000D03*
G04 #@! TD*
D15*
G04 #@! TO.C,R12*
X113980000Y-113180000D03*
D22*
X113980000Y-123340000D03*
G04 #@! TD*
D15*
G04 #@! TO.C,R13*
X108900000Y-113180000D03*
D22*
X108900000Y-123340000D03*
G04 #@! TD*
D15*
G04 #@! TO.C,R14*
X164780000Y-133500000D03*
D22*
X154620000Y-133500000D03*
G04 #@! TD*
D23*
G04 #@! TO.C,U1*
X111440000Y-100480000D03*
D24*
X113980000Y-100480000D03*
X116520000Y-100480000D03*
X119060000Y-100480000D03*
X121600000Y-100480000D03*
X124140000Y-100480000D03*
X126680000Y-100480000D03*
X126680000Y-108100000D03*
X124140000Y-108100000D03*
X121600000Y-108100000D03*
X119060000Y-108100000D03*
X116520000Y-108100000D03*
X113980000Y-108100000D03*
X111440000Y-108100000D03*
G04 #@! TD*
D15*
G04 #@! TO.C,R1*
X144460000Y-80160000D03*
D22*
X144460000Y-70000000D03*
G04 #@! TD*
D15*
G04 #@! TO.C,R2*
X139380000Y-70000000D03*
D22*
X139380000Y-80160000D03*
G04 #@! TD*
D15*
G04 #@! TO.C,R4*
X139380000Y-85240000D03*
D22*
X139380000Y-95400000D03*
G04 #@! TD*
D15*
G04 #@! TO.C,R5*
X134300000Y-95400000D03*
D22*
X134300000Y-85240000D03*
G04 #@! TD*
D15*
G04 #@! TO.C,C5*
X174940000Y-113180000D03*
X174940000Y-115680000D03*
G04 #@! TD*
G04 #@! TO.C,C6*
X174940000Y-92860000D03*
X174940000Y-95360000D03*
G04 #@! TD*
G04 #@! TO.C,R15*
X154620000Y-80160000D03*
D22*
X154620000Y-70000000D03*
G04 #@! TD*
D15*
G04 #@! TO.C,R16*
X149540000Y-70000000D03*
D22*
X149540000Y-80160000D03*
G04 #@! TD*
D15*
G04 #@! TO.C,R18*
X152080000Y-85240000D03*
D22*
X152080000Y-95400000D03*
G04 #@! TD*
D15*
G04 #@! TO.C,R19*
X147000000Y-95400000D03*
D22*
X147000000Y-85240000D03*
G04 #@! TD*
D15*
G04 #@! TO.C,R17*
X169860000Y-95400000D03*
D22*
X169860000Y-85240000D03*
G04 #@! TD*
D15*
G04 #@! TO.C,R21*
X180020000Y-95400000D03*
D22*
X180020000Y-85240000D03*
G04 #@! TD*
D15*
G04 #@! TO.C,R22*
X185100000Y-95400000D03*
D22*
X185100000Y-85240000D03*
G04 #@! TD*
D15*
G04 #@! TO.C,R23*
X180020000Y-113180000D03*
D22*
X180020000Y-123340000D03*
G04 #@! TD*
D15*
G04 #@! TO.C,R24*
X185100000Y-113180000D03*
D22*
X185100000Y-123340000D03*
G04 #@! TD*
D15*
G04 #@! TO.C,R25*
X129220000Y-133500000D03*
D22*
X139380000Y-133500000D03*
G04 #@! TD*
D15*
G04 #@! TO.C,R26*
X169860000Y-113180000D03*
D22*
X169860000Y-123340000D03*
G04 #@! TD*
D15*
G04 #@! TO.C,R27*
X164780000Y-113180000D03*
D22*
X164780000Y-123340000D03*
G04 #@! TD*
D15*
G04 #@! TO.C,R28*
X190180000Y-133500000D03*
D22*
X180020000Y-133500000D03*
G04 #@! TD*
D25*
G04 #@! TO.C,J7*
X139380000Y-113180000D03*
D26*
X139380000Y-110640000D03*
X139380000Y-108100000D03*
G04 #@! TD*
D25*
G04 #@! TO.C,J8*
X139380000Y-120800000D03*
D26*
X139380000Y-118260000D03*
G04 #@! TD*
D27*
G04 #@! TO.C,J12*
X154620000Y-115720000D03*
D26*
X154620000Y-118260000D03*
X154620000Y-120800000D03*
G04 #@! TD*
D27*
G04 #@! TO.C,J14*
X154620000Y-108100000D03*
D26*
X154620000Y-110640000D03*
G04 #@! TD*
D15*
G04 #@! TO.C,R20*
X164780000Y-95400000D03*
D22*
X164780000Y-85240000D03*
G04 #@! TD*
D28*
G04 #@! TO.C,RV1*
X105090000Y-105560000D03*
X105090000Y-103020000D03*
X105090000Y-100480000D03*
G04 #@! TD*
G04 #@! TO.C,RV4*
X188910000Y-105560000D03*
X188910000Y-103020000D03*
X188910000Y-100480000D03*
G04 #@! TD*
D29*
G04 #@! TO.C,TP1*
X103820000Y-92860000D03*
G04 #@! TD*
G04 #@! TO.C,TP2*
X190180000Y-92733000D03*
G04 #@! TD*
D23*
G04 #@! TO.C,U2*
X167320000Y-100480000D03*
D24*
X169860000Y-100480000D03*
X172400000Y-100480000D03*
X174940000Y-100480000D03*
X177480000Y-100480000D03*
X180020000Y-100480000D03*
X182560000Y-100480000D03*
X182560000Y-108100000D03*
X180020000Y-108100000D03*
X177480000Y-108100000D03*
X174940000Y-108100000D03*
X172400000Y-108100000D03*
X169860000Y-108100000D03*
X167320000Y-108100000D03*
G04 #@! TD*
M02*
