M48
; DRILL file {KiCad 5.1.12-84ad8e8a86~92~ubuntu20.04.1} date Sat 13 Nov 2021 04:18:03 PM EST
; FORMAT={-:-/ absolute / inch / decimal}
; #@! TF.CreationDate,2021-11-13T16:18:03-05:00
; #@! TF.GenerationSoftware,Kicad,Pcbnew,5.1.12-84ad8e8a86~92~ubuntu20.04.1
; #@! TF.FileFunction,Plated,1,2,PTH
FMAT,2
INCH
T1C0.0157
T2C0.0315
T3C0.0400
T4C0.0433
T5C0.0469
T6C0.0472
T7C0.1063
%
G90
G05
T1
X4.8424Y-4.0659
T2
X4.0874Y-5.2559
X4.1374Y-3.9559
X4.1374Y-4.0559
X4.1374Y-4.1559
X4.2874Y-3.3559
X4.2874Y-3.7559
X4.2874Y-4.4559
X4.2874Y-4.8559
X4.3874Y-3.9559
X4.3874Y-4.2559
X4.4874Y-3.3559
X4.4874Y-3.7559
X4.4874Y-3.9559
X4.4874Y-4.2559
X4.4874Y-4.4559
X4.4874Y-4.8559
X4.4874Y-5.2559
X4.5874Y-3.9559
X4.5874Y-4.2559
X4.6874Y-3.6559
X4.6874Y-3.7543
X4.6874Y-3.9559
X4.6874Y-4.2559
X4.6874Y-4.4575
X4.6874Y-4.5559
X4.7874Y-3.9559
X4.7874Y-4.2559
X4.8874Y-3.3559
X4.8874Y-3.7559
X4.8874Y-3.9559
X4.8874Y-4.2559
X4.8874Y-4.4559
X4.8874Y-4.8559
X4.9874Y-3.9559
X4.9874Y-4.2559
X5.0874Y-2.7559
X5.0874Y-3.3559
X5.0874Y-3.7559
X5.0874Y-4.4559
X5.0874Y-4.8559
X5.0874Y-5.2559
X5.089Y-3.1559
X5.1858Y-2.7559
X5.1874Y-3.1559
X5.2874Y-3.3559
X5.2874Y-3.7559
X5.4874Y-2.7559
X5.4874Y-3.1559
X5.4874Y-3.3559
X5.4874Y-3.7559
X5.4874Y-5.2559
X5.6874Y-2.7559
X5.6874Y-3.1559
X5.7874Y-3.3559
X5.7874Y-3.7559
X5.8874Y-2.7559
X5.8874Y-3.1559
X5.9874Y-3.3559
X5.9874Y-3.7559
X6.0874Y-2.7559
X6.0874Y-3.1559
X6.0874Y-5.2559
X6.4874Y-3.3559
X6.4874Y-3.7559
X6.4874Y-4.4559
X6.4874Y-4.8559
X6.4874Y-5.2559
X6.5874Y-3.9559
X6.5874Y-4.2559
X6.6874Y-3.3559
X6.6874Y-3.7559
X6.6874Y-3.9559
X6.6874Y-4.2559
X6.6874Y-4.4559
X6.6874Y-4.8559
X6.7874Y-3.9559
X6.7874Y-4.2559
X6.8874Y-3.6559
X6.8874Y-3.7543
X6.8874Y-3.9559
X6.8874Y-4.2559
X6.8874Y-4.4559
X6.8874Y-4.5543
X6.9874Y-3.9559
X6.9874Y-4.2559
X7.0874Y-3.3559
X7.0874Y-3.7559
X7.0874Y-3.9559
X7.0874Y-4.2559
X7.0874Y-4.4559
X7.0874Y-4.8559
X7.0874Y-5.2559
X7.1874Y-3.9559
X7.1874Y-4.2559
X7.2874Y-3.3559
X7.2874Y-3.7559
X7.2874Y-4.4559
X7.2874Y-4.8559
X7.4374Y-3.9559
X7.4374Y-4.0559
X7.4374Y-4.1559
X7.4874Y-5.2559
T3
X4.2874Y-2.5559
X4.2874Y-2.6559
X4.2874Y-2.7559
X4.2874Y-2.8559
X4.2874Y-2.9559
X4.3874Y-2.5559
X4.3874Y-2.6559
X4.3874Y-2.7559
X4.3874Y-2.8559
X4.3874Y-2.9559
T4
X4.6874Y-2.7559
X4.6874Y-3.1559
X4.8874Y-2.7559
X4.8874Y-3.1559
T5
X5.5874Y-2.4559
X5.6874Y-2.4559
X5.7874Y-2.4559
X5.8874Y-2.4559
X5.9874Y-2.4559
X6.0874Y-2.4559
T6
X5.4874Y-4.2559
X5.4874Y-4.3559
X5.4874Y-4.4559
X5.4874Y-4.6559
X5.4874Y-4.7559
X6.0874Y-4.2559
X6.0874Y-4.3559
X6.0874Y-4.5559
X6.0874Y-4.6559
X6.0874Y-4.7559
T7
X4.0591Y-5.7283
X4.2126Y-5.9606
X4.3307Y-5.4567
X4.4976Y-5.8953
X4.563Y-5.6102
X5.0433Y-5.7283
X5.1969Y-5.9606
X5.315Y-5.4567
X5.4819Y-5.8953
X5.5472Y-5.6102
X6.0276Y-5.7283
X6.1811Y-5.9606
X6.2992Y-5.4567
X6.4661Y-5.8953
X6.5315Y-5.6102
X7.0118Y-5.7283
X7.1654Y-5.9606
X7.2835Y-5.4567
X7.4504Y-5.8953
X7.5157Y-5.6102
T0
M30
