%TF.GenerationSoftware,KiCad,Pcbnew,5.1.12-84ad8e8a86~92~ubuntu20.04.1*%
%TF.CreationDate,2021-11-13T16:17:45-05:00*%
%TF.ProjectId,joystick,6a6f7973-7469-4636-9b2e-6b696361645f,rev?*%
%TF.SameCoordinates,Original*%
%TF.FileFunction,Soldermask,Top*%
%TF.FilePolarity,Negative*%
%FSLAX46Y46*%
G04 Gerber Fmt 4.6, Leading zero omitted, Abs format (unit mm)*
G04 Created by KiCad (PCBNEW 5.1.12-84ad8e8a86~92~ubuntu20.04.1) date 2021-11-13 16:17:45*
%MOMM*%
%LPD*%
G01*
G04 APERTURE LIST*
%ADD10C,1.440000*%
%ADD11O,1.600000X2.400000*%
%ADD12R,1.600000X2.400000*%
%ADD13C,1.600000*%
%ADD14O,1.600000X1.600000*%
%ADD15R,1.600000X1.600000*%
%ADD16O,2.200000X1.740000*%
%ADD17C,3.200000*%
%ADD18C,4.500001*%
%ADD19C,4.500000*%
%ADD20R,4.500001X4.500001*%
%ADD21O,1.740000X2.190000*%
%ADD22O,2.200000X2.200000*%
%ADD23R,2.200000X2.200000*%
%ADD24O,1.727200X1.727200*%
%ADD25R,1.727200X1.727200*%
G04 APERTURE END LIST*
D10*
%TO.C,RV4*%
X188910000Y-100480000D03*
X188910000Y-103020000D03*
X188910000Y-105560000D03*
%TD*%
%TO.C,RV1*%
X105090000Y-100480000D03*
X105090000Y-103020000D03*
X105090000Y-105560000D03*
%TD*%
D11*
%TO.C,U2*%
X167320000Y-108100000D03*
X182560000Y-100480000D03*
X169860000Y-108100000D03*
X180020000Y-100480000D03*
X172400000Y-108100000D03*
X177480000Y-100480000D03*
X174940000Y-108100000D03*
X174940000Y-100480000D03*
X177480000Y-108100000D03*
X172400000Y-100480000D03*
X180020000Y-108100000D03*
X169860000Y-100480000D03*
X182560000Y-108100000D03*
D12*
X167320000Y-100480000D03*
%TD*%
D13*
%TO.C,R20*%
X164780000Y-95400000D03*
D14*
X164780000Y-85240000D03*
%TD*%
D13*
%TO.C,C1*%
X129260000Y-80160000D03*
D15*
X131760000Y-80160000D03*
%TD*%
D13*
%TO.C,C2*%
X131720000Y-70000000D03*
D15*
X129220000Y-70000000D03*
%TD*%
D16*
%TO.C,J14*%
X154620000Y-110640000D03*
G36*
G01*
X153769999Y-107230000D02*
X155470001Y-107230000D01*
G75*
G02*
X155720000Y-107479999I0J-249999D01*
G01*
X155720000Y-108720001D01*
G75*
G02*
X155470001Y-108970000I-249999J0D01*
G01*
X153769999Y-108970000D01*
G75*
G02*
X153520000Y-108720001I0J249999D01*
G01*
X153520000Y-107479999D01*
G75*
G02*
X153769999Y-107230000I249999J0D01*
G01*
G37*
%TD*%
%TO.C,J12*%
X154620000Y-120800000D03*
X154620000Y-118260000D03*
G36*
G01*
X153769999Y-114850000D02*
X155470001Y-114850000D01*
G75*
G02*
X155720000Y-115099999I0J-249999D01*
G01*
X155720000Y-116340001D01*
G75*
G02*
X155470001Y-116590000I-249999J0D01*
G01*
X153769999Y-116590000D01*
G75*
G02*
X153520000Y-116340001I0J249999D01*
G01*
X153520000Y-115099999D01*
G75*
G02*
X153769999Y-114850000I249999J0D01*
G01*
G37*
%TD*%
%TO.C,J8*%
X139380000Y-118260000D03*
G36*
G01*
X140230001Y-121670000D02*
X138529999Y-121670000D01*
G75*
G02*
X138280000Y-121420001I0J249999D01*
G01*
X138280000Y-120179999D01*
G75*
G02*
X138529999Y-119930000I249999J0D01*
G01*
X140230001Y-119930000D01*
G75*
G02*
X140480000Y-120179999I0J-249999D01*
G01*
X140480000Y-121420001D01*
G75*
G02*
X140230001Y-121670000I-249999J0D01*
G01*
G37*
%TD*%
%TO.C,J7*%
X139380000Y-108100000D03*
X139380000Y-110640000D03*
G36*
G01*
X140230001Y-114050000D02*
X138529999Y-114050000D01*
G75*
G02*
X138280000Y-113800001I0J249999D01*
G01*
X138280000Y-112559999D01*
G75*
G02*
X138529999Y-112310000I249999J0D01*
G01*
X140230001Y-112310000D01*
G75*
G02*
X140480000Y-112559999I0J-249999D01*
G01*
X140480000Y-113800001D01*
G75*
G02*
X140230001Y-114050000I-249999J0D01*
G01*
G37*
%TD*%
D17*
%TO.C,H2*%
X184500000Y-51000000D03*
%TD*%
%TO.C,H1*%
X109500000Y-51000000D03*
%TD*%
D18*
%TO.C,J13*%
X190900000Y-142500000D03*
D19*
X182000000Y-151400000D03*
D18*
X185000000Y-138600000D03*
D20*
X189240000Y-149740000D03*
D19*
X178100000Y-145500000D03*
%TD*%
D18*
%TO.C,J11*%
X140900000Y-142500000D03*
D19*
X132000000Y-151400000D03*
D18*
X135000000Y-138600000D03*
D20*
X139240000Y-149740000D03*
D19*
X128100000Y-145500000D03*
%TD*%
D18*
%TO.C,J6*%
X165900000Y-142500000D03*
D19*
X157000000Y-151400000D03*
D18*
X160000000Y-138600000D03*
D20*
X164240000Y-149740000D03*
D19*
X153100000Y-145500000D03*
%TD*%
D18*
%TO.C,J4*%
X115900000Y-142500000D03*
D19*
X107000000Y-151400000D03*
D18*
X110000000Y-138600000D03*
D20*
X114240000Y-149740000D03*
D19*
X103100000Y-145500000D03*
%TD*%
D21*
%TO.C,J5*%
X154620000Y-62380000D03*
X152080000Y-62380000D03*
X149540000Y-62380000D03*
X147000000Y-62380000D03*
X144460000Y-62380000D03*
G36*
G01*
X141050000Y-63225001D02*
X141050000Y-61534999D01*
G75*
G02*
X141299999Y-61285000I249999J0D01*
G01*
X142540001Y-61285000D01*
G75*
G02*
X142790000Y-61534999I0J-249999D01*
G01*
X142790000Y-63225001D01*
G75*
G02*
X142540001Y-63475000I-249999J0D01*
G01*
X141299999Y-63475000D01*
G75*
G02*
X141050000Y-63225001I0J249999D01*
G01*
G37*
%TD*%
D13*
%TO.C,R28*%
X190180000Y-133500000D03*
D14*
X180020000Y-133500000D03*
%TD*%
D13*
%TO.C,R27*%
X164780000Y-113180000D03*
D14*
X164780000Y-123340000D03*
%TD*%
D13*
%TO.C,R26*%
X169860000Y-113180000D03*
D14*
X169860000Y-123340000D03*
%TD*%
D13*
%TO.C,R25*%
X129220000Y-133500000D03*
D14*
X139380000Y-133500000D03*
%TD*%
D13*
%TO.C,R24*%
X185100000Y-113180000D03*
D14*
X185100000Y-123340000D03*
%TD*%
D13*
%TO.C,R23*%
X180020000Y-113180000D03*
D14*
X180020000Y-123340000D03*
%TD*%
D13*
%TO.C,R22*%
X185100000Y-95400000D03*
D14*
X185100000Y-85240000D03*
%TD*%
D13*
%TO.C,R21*%
X180020000Y-95400000D03*
D14*
X180020000Y-85240000D03*
%TD*%
D13*
%TO.C,R17*%
X169860000Y-95400000D03*
D14*
X169860000Y-85240000D03*
%TD*%
D13*
%TO.C,R19*%
X147000000Y-95400000D03*
D14*
X147000000Y-85240000D03*
%TD*%
D13*
%TO.C,R18*%
X152080000Y-85240000D03*
D14*
X152080000Y-95400000D03*
%TD*%
D13*
%TO.C,R16*%
X149540000Y-70000000D03*
D14*
X149540000Y-80160000D03*
%TD*%
D13*
%TO.C,R15*%
X154620000Y-80160000D03*
D14*
X154620000Y-70000000D03*
%TD*%
D13*
%TO.C,R14*%
X164780000Y-133500000D03*
D14*
X154620000Y-133500000D03*
%TD*%
D13*
%TO.C,R13*%
X108900000Y-113180000D03*
D14*
X108900000Y-123340000D03*
%TD*%
D13*
%TO.C,R12*%
X113980000Y-113180000D03*
D14*
X113980000Y-123340000D03*
%TD*%
D13*
%TO.C,R11*%
X103820000Y-133500000D03*
D14*
X113980000Y-133500000D03*
%TD*%
D13*
%TO.C,R10*%
X129220000Y-113180000D03*
D14*
X129220000Y-123340000D03*
%TD*%
D13*
%TO.C,R9*%
X124140000Y-113180000D03*
D14*
X124140000Y-123340000D03*
%TD*%
D13*
%TO.C,R8*%
X129220000Y-95400000D03*
D14*
X129220000Y-85240000D03*
%TD*%
D13*
%TO.C,R7*%
X124140000Y-95400000D03*
D14*
X124140000Y-85240000D03*
%TD*%
D13*
%TO.C,R6*%
X108900000Y-95400000D03*
D14*
X108900000Y-85240000D03*
%TD*%
D13*
%TO.C,R3*%
X113980000Y-95400000D03*
D14*
X113980000Y-85240000D03*
%TD*%
D13*
%TO.C,C6*%
X174940000Y-95360000D03*
X174940000Y-92860000D03*
%TD*%
%TO.C,C5*%
X174940000Y-115680000D03*
X174940000Y-113180000D03*
%TD*%
%TO.C,R5*%
X134300000Y-95400000D03*
D14*
X134300000Y-85240000D03*
%TD*%
D13*
%TO.C,R4*%
X139380000Y-85240000D03*
D14*
X139380000Y-95400000D03*
%TD*%
D13*
%TO.C,R2*%
X139380000Y-70000000D03*
D14*
X139380000Y-80160000D03*
%TD*%
D13*
%TO.C,R1*%
X144460000Y-80160000D03*
D14*
X144460000Y-70000000D03*
%TD*%
D22*
%TO.C,D1*%
X124140000Y-70000000D03*
D23*
X124140000Y-80160000D03*
%TD*%
D22*
%TO.C,D2*%
X119060000Y-80160000D03*
D23*
X119060000Y-70000000D03*
%TD*%
D11*
%TO.C,U1*%
X111440000Y-108100000D03*
X126680000Y-100480000D03*
X113980000Y-108100000D03*
X124140000Y-100480000D03*
X116520000Y-108100000D03*
X121600000Y-100480000D03*
X119060000Y-108100000D03*
X119060000Y-100480000D03*
X121600000Y-108100000D03*
X116520000Y-100480000D03*
X124140000Y-108100000D03*
X113980000Y-100480000D03*
X126680000Y-108100000D03*
D12*
X111440000Y-100480000D03*
%TD*%
D13*
%TO.C,C3*%
X119060000Y-92860000D03*
X119060000Y-95360000D03*
%TD*%
%TO.C,C4*%
X119060000Y-113220000D03*
X119060000Y-115720000D03*
%TD*%
D24*
%TO.C,J1*%
X111440000Y-64920000D03*
X108900000Y-64920000D03*
X111440000Y-67460000D03*
X108900000Y-67460000D03*
X111440000Y-70000000D03*
X108900000Y-70000000D03*
X111440000Y-72540000D03*
X108900000Y-72540000D03*
X111440000Y-75080000D03*
D25*
X108900000Y-75080000D03*
%TD*%
M02*
